<?xml version="1.0" standalone="no"?>
<!DOCTYPE svg PUBLIC "-//W3C//DTD SVG 20010904//EN"
 "http://www.w3.org/TR/2001/REC-SVG-20010904/DTD/svg10.dtd">
<svg version="1.0" xmlns="http://www.w3.org/2000/svg"
 width="3938.000000pt" height="3938.000000pt" viewBox="0 0 3938.000000 3938.000000"
 preserveAspectRatio="xMidYMid meet">
<metadata>
Created by potrace 1.14, written by Peter Selinger 2001-2017
</metadata>
<g transform="translate(0.000000,3938.000000) scale(0.100000,-0.100000)"
fill="#000000" stroke="none">
<path d="M15108 39364 c-2 -1 -30 -5 -63 -8 -33 -4 -76 -8 -95 -11 -70 -10
-136 -17 -162 -19 -16 0 -28 -3 -28 -6 0 -3 -12 -6 -27 -6 -16 -1 -41 -4 -58
-8 -16 -3 -50 -8 -75 -12 -25 -3 -54 -8 -65 -11 -11 -4 -27 -7 -35 -9 -47 -6
-203 -38 -215 -44 -3 -1 -14 -4 -25 -5 -11 -1 -21 -3 -22 -5 -2 -1 -10 -3 -18
-5 -8 -2 -26 -6 -40 -9 -14 -3 -38 -8 -54 -11 -16 -3 -33 -8 -38 -11 -4 -3
-17 -7 -28 -10 -11 -2 -29 -6 -40 -9 -11 -3 -28 -7 -37 -9 -10 -3 -39 -11 -65
-19 -26 -8 -49 -12 -52 -9 -4 3 -6 1 -6 -5 0 -5 -6 -10 -12 -11 -15 -1 -53
-10 -53 -12 0 -1 -8 -3 -18 -5 -10 -2 -26 -7 -35 -11 -18 -7 -29 -11 -59 -18
-10 -3 -20 -5 -23 -6 -3 -1 -8 -2 -12 -1 -5 0 -8 -3 -8 -7 0 -5 -6 -9 -12 -10
-23 -2 -51 -11 -118 -39 -8 -3 -21 -7 -28 -9 -8 -1 -21 -6 -30 -10 -9 -4 -20
-8 -24 -9 -5 -2 -10 -4 -13 -5 -3 -1 -8 -3 -12 -5 -5 -1 -21 -8 -38 -15 -16
-7 -34 -14 -40 -15 -5 -2 -28 -11 -50 -20 -22 -10 -46 -17 -52 -16 -7 1 -13
-3 -13 -9 0 -5 -9 -10 -20 -10 -11 0 -20 -5 -20 -12 0 -6 -3 -8 -6 -5 -4 3
-16 1 -28 -5 -11 -7 -23 -13 -26 -13 -3 -1 -22 -9 -44 -18 -21 -9 -42 -17 -47
-17 -5 0 -9 -4 -9 -9 0 -5 -16 -12 -35 -15 -20 -4 -33 -11 -30 -17 4 -5 -1 -9
-9 -9 -18 0 -148 -61 -157 -73 -3 -5 -8 -8 -10 -6 -6 3 -93 -43 -100 -53 -3
-5 -9 -10 -12 -10 -18 0 -47 -11 -47 -18 0 -4 -14 -10 -31 -14 -17 -3 -28 -10
-24 -16 3 -5 -3 -10 -13 -10 -11 0 -23 -7 -26 -16 -3 -8 -11 -12 -16 -9 -6 4
-23 -5 -37 -19 -14 -14 -29 -23 -34 -20 -5 3 -9 0 -9 -7 0 -7 -3 -9 -6 -6 -4
4 -15 -3 -25 -14 -9 -11 -21 -21 -26 -21 -11 -1 -87 -51 -91 -60 -2 -5 -9 -8
-16 -8 -6 0 -19 -8 -27 -17 -25 -28 -59 -54 -59 -45 0 4 -6 0 -13 -9 -7 -8
-19 -20 -28 -25 -17 -9 -98 -76 -131 -106 -10 -10 -18 -16 -18 -13 0 2 -16
-11 -35 -30 -19 -19 -38 -35 -43 -35 -5 0 -16 -8 -23 -17 -12 -16 -12 -17 1
-8 9 6 7 2 -5 -7 -11 -9 -28 -24 -37 -32 -10 -9 -23 -16 -29 -16 -5 0 -7 -5
-4 -11 4 -6 -2 -13 -14 -16 -11 -3 -19 -8 -17 -12 1 -3 -5 -14 -16 -23 -10
-10 -18 -15 -18 -12 0 3 -7 -1 -15 -10 -8 -8 -15 -20 -15 -26 0 -6 -4 -8 -10
-5 -5 3 -10 1 -10 -5 0 -15 -26 -41 -34 -33 -3 4 -6 1 -6 -6 0 -7 -32 -44 -71
-82 -39 -38 -68 -69 -65 -69 4 0 -6 -12 -21 -26 -15 -15 -27 -30 -26 -35 2 -5
-4 -9 -12 -9 -8 0 -14 -4 -12 -8 1 -4 -11 -20 -27 -35 -16 -15 -26 -27 -23
-27 4 0 -9 -16 -28 -35 -19 -19 -35 -39 -35 -45 0 -5 -4 -10 -10 -10 -5 0 -10
-4 -10 -10 0 -5 -14 -23 -31 -40 -18 -16 -29 -30 -25 -30 4 0 -3 -11 -16 -24
-37 -38 -58 -66 -50 -66 4 0 2 -4 -3 -8 -18 -13 -97 -112 -89 -112 4 0 -4 -10
-18 -22 -14 -13 -29 -33 -33 -46 -3 -12 -11 -20 -16 -17 -8 5 -11 -1 -8 -21 0
-3 -8 -13 -18 -22 -32 -30 -59 -66 -43 -58 8 5 2 -4 -15 -19 -16 -14 -23 -23
-15 -19 8 4 -12 -18 -45 -49 -32 -31 -63 -57 -68 -57 -4 0 -5 -4 -2 -10 3 -5
-1 -10 -9 -10 -9 0 -16 -5 -16 -11 0 -5 -5 -7 -10 -4 -6 3 -13 -1 -16 -9 -3
-9 -10 -13 -16 -10 -5 3 -16 -2 -23 -12 -8 -11 -15 -16 -15 -12 0 4 -16 0 -35
-8 -69 -29 -176 -36 -265 -18 -36 8 -76 16 -90 18 -14 3 -25 5 -25 6 0 1 -7 3
-15 5 -34 8 -60 15 -167 43 -62 16 -114 27 -117 24 -4 -3 -6 0 -6 7 0 7 -6 11
-14 8 -8 -3 -17 -3 -20 1 -7 6 -22 10 -62 17 -12 1 -31 8 -43 14 -11 7 -21 9
-21 7 0 -3 -12 -1 -27 5 -31 12 -62 20 -80 21 -7 1 -13 6 -13 11 0 5 -7 7 -15
4 -8 -4 -17 -2 -20 2 -2 5 -22 12 -42 16 -21 4 -44 11 -50 17 -7 6 -13 7 -13
3 0 -4 -7 -2 -15 5 -8 7 -15 9 -15 5 0 -4 -7 -2 -15 5 -8 7 -15 10 -15 7 0 -3
-12 0 -27 8 -15 8 -30 12 -35 9 -4 -3 -8 0 -8 6 0 6 -6 10 -12 9 -7 -2 -31 5
-53 15 -22 9 -48 18 -57 19 -10 1 -18 5 -18 9 0 4 -10 8 -23 8 -13 0 -28 5
-35 12 -7 7 -12 8 -12 4 0 -5 -6 -4 -13 2 -7 6 -24 13 -39 16 -14 2 -36 9 -47
16 -12 6 -21 8 -21 4 0 -3 -6 -1 -14 5 -8 6 -18 11 -22 10 -5 -1 -17 1 -26 4
-46 18 -54 20 -67 23 -8 1 -26 6 -40 10 -14 4 -29 7 -33 6 -5 -1 -8 2 -8 7 0
6 -9 8 -20 6 -11 -2 -20 0 -20 4 0 7 -25 13 -87 22 -5 1 -19 6 -33 11 -25 10
-53 18 -80 23 -8 1 -22 5 -30 8 -8 3 -26 8 -40 10 -14 3 -36 8 -50 11 -14 3
-41 9 -60 13 -47 9 -50 10 -52 13 -2 1 -12 3 -23 5 -11 3 -31 6 -45 9 -14 3
-39 7 -57 10 -18 2 -40 7 -50 10 -10 3 -34 7 -53 10 -19 3 -46 8 -60 11 -13 2
-42 8 -65 11 -22 4 -49 8 -60 10 -56 9 -94 14 -135 19 -25 3 -61 7 -80 10 -34
5 -71 9 -180 21 -59 7 -74 8 -250 20 -200 14 -725 10 -725 -6 0 -2 -48 -9 -75
-11 -8 -1 -19 -5 -25 -9 -5 -4 -18 -6 -27 -5 -10 2 -18 -2 -18 -8 0 -5 -3 -8
-6 -4 -4 3 -21 0 -38 -7 -17 -7 -37 -11 -43 -9 -7 3 -13 0 -13 -7 0 -6 -4 -9
-8 -6 -4 2 -38 -8 -74 -24 -37 -15 -69 -25 -72 -22 -4 3 -6 0 -6 -7 0 -7 -4
-9 -10 -6 -5 3 -10 1 -10 -5 0 -6 -4 -8 -10 -5 -5 3 -10 1 -10 -4 0 -6 -3 -10
-7 -9 -11 3 -87 -34 -95 -46 -4 -6 -8 -7 -8 -3 0 5 -13 -1 -29 -12 -15 -11
-31 -18 -35 -14 -3 3 -6 1 -6 -5 0 -7 -7 -12 -15 -12 -8 0 -15 -4 -15 -10 0
-5 -6 -10 -13 -10 -7 0 -23 -9 -35 -20 -12 -12 -22 -17 -22 -13 0 4 -4 3 -8
-2 -4 -6 -26 -23 -49 -39 -24 -16 -43 -33 -43 -38 0 -5 -5 -6 -10 -3 -6 3 -10
1 -10 -4 0 -6 -6 -11 -13 -11 -6 0 -25 -13 -40 -30 -16 -16 -33 -30 -38 -30
-6 0 -7 -4 -4 -10 3 -5 1 -10 -5 -10 -16 0 -160 -144 -160 -159 0 -7 -4 -9
-10 -6 -5 3 -10 -1 -10 -10 0 -9 -4 -13 -10 -10 -6 3 -10 1 -10 -5 0 -12 -11
-27 -50 -67 -14 -14 -18 -22 -10 -17 8 4 0 -8 -17 -26 -18 -19 -33 -40 -33
-47 0 -7 -4 -13 -10 -13 -5 0 -10 -6 -10 -14 0 -8 -6 -21 -13 -28 -6 -7 -19
-22 -27 -32 -12 -16 -12 -18 -1 -11 8 5 3 -7 -11 -26 -15 -19 -30 -46 -33 -61
-4 -16 -11 -28 -16 -28 -5 0 -8 -3 -7 -7 1 -5 -3 -23 -9 -41 -7 -18 -11 -34
-10 -36 1 -1 -4 -10 -12 -19 -7 -10 -10 -17 -6 -17 4 0 2 -7 -5 -15 -7 -8 -9
-15 -5 -15 4 0 2 -7 -5 -15 -6 -8 -9 -19 -6 -24 4 -5 1 -13 -5 -16 -5 -4 -8
-13 -5 -21 3 -8 2 -14 -2 -14 -4 0 -8 -8 -8 -17 -1 -10 -5 -34 -9 -53 -10 -52
-15 -94 -20 -200 -12 -243 -17 -319 -30 -435 -4 -27 -8 -66 -10 -85 -1 -19 -6
-55 -10 -80 -4 -25 -8 -56 -9 -70 -5 -48 -19 -125 -24 -135 -4 -5 -8 -16 -9
-22 -6 -24 -11 -48 -13 -53 -1 -3 -2 -8 -1 -12 0 -5 -3 -8 -9 -8 -5 0 -10 -9
-10 -20 0 -11 -4 -20 -10 -20 -5 0 -10 -7 -10 -15 0 -8 -5 -15 -11 -15 -5 0
-7 -4 -4 -10 3 -5 1 -10 -6 -10 -7 0 -10 -3 -6 -6 6 -7 -3 -19 -43 -61 -14
-14 -18 -22 -10 -19 8 4 6 0 -5 -9 -38 -30 -108 -90 -123 -105 -9 -8 -17 -13
-18 -10 -2 3 -12 -3 -23 -12 -11 -9 -22 -14 -25 -11 -3 4 -6 1 -6 -5 0 -7 -7
-12 -16 -12 -8 0 -22 -7 -31 -15 -8 -8 -19 -13 -24 -10 -5 4 -9 2 -9 -3 0 -5
-18 -17 -40 -27 -22 -10 -40 -22 -40 -27 0 -4 -3 -7 -7 -6 -13 3 -63 -25 -63
-34 0 -5 -4 -6 -10 -3 -5 3 -10 1 -10 -4 0 -6 -3 -11 -7 -10 -18 3 -52 -14
-47 -22 3 -5 -4 -9 -15 -9 -12 0 -21 -5 -21 -11 0 -5 -4 -7 -10 -4 -5 3 -10 1
-10 -5 0 -6 -5 -8 -10 -5 -6 3 -13 -1 -16 -9 -3 -9 -10 -13 -15 -10 -5 3 -9 0
-9 -5 0 -6 -3 -10 -7 -9 -13 3 -63 -25 -63 -34 0 -5 -4 -7 -9 -3 -5 3 -16 -1
-24 -9 -8 -8 -17 -12 -21 -9 -3 3 -8 -2 -12 -11 -3 -9 -10 -14 -14 -11 -5 3
-15 -1 -23 -9 -8 -8 -17 -12 -21 -9 -3 3 -8 -2 -12 -11 -3 -9 -10 -13 -15 -10
-5 3 -9 0 -9 -6 0 -6 -4 -8 -10 -5 -5 3 -10 1 -10 -5 0 -6 -5 -8 -10 -5 -6 3
-13 -1 -16 -9 -3 -9 -10 -14 -14 -11 -5 3 -15 -1 -23 -9 -8 -8 -17 -12 -21 -9
-3 3 -8 -2 -12 -11 -3 -9 -10 -14 -14 -11 -5 3 -15 -1 -23 -9 -8 -8 -17 -12
-21 -9 -3 3 -8 -2 -12 -11 -3 -9 -10 -13 -15 -10 -5 3 -9 0 -9 -5 0 -6 -3 -10
-7 -9 -13 3 -63 -25 -63 -34 0 -5 -4 -6 -10 -3 -5 3 -10 1 -10 -5 0 -6 -4 -9
-8 -6 -5 3 -18 -3 -29 -14 -12 -10 -24 -16 -27 -13 -3 4 -6 1 -6 -6 0 -7 -4
-10 -8 -7 -5 3 -18 -3 -29 -14 -12 -10 -24 -16 -27 -13 -3 4 -6 1 -6 -6 0 -7
-4 -9 -10 -6 -5 3 -10 1 -10 -4 0 -6 -7 -11 -15 -11 -8 0 -15 -5 -15 -12 0 -6
-3 -8 -7 -5 -3 4 -12 -1 -20 -11 -10 -11 -12 -12 -8 -2 6 13 5 13 -7 0 -7 -8
-20 -16 -28 -18 -8 -2 -17 -7 -20 -11 -3 -4 -21 -16 -40 -27 -19 -10 -41 -25
-48 -31 -7 -7 -20 -13 -28 -13 -8 0 -12 -4 -9 -10 3 -5 -2 -10 -12 -10 -10 0
-31 -11 -46 -25 -15 -14 -27 -23 -27 -21 0 6 -29 -16 -56 -42 -7 -7 -16 -13
-19 -12 -20 1 -25 -1 -20 -9 3 -5 -3 -12 -14 -16 -10 -3 -53 -38 -95 -78 -42
-40 -79 -71 -81 -68 -3 2 -5 -1 -5 -8 0 -7 -12 -26 -27 -41 -53 -54 -68 -73
-53 -66 13 6 13 5 0 -6 -20 -17 -80 -106 -80 -119 0 -5 -5 -9 -11 -9 -5 0 -7
-4 -4 -10 3 -5 1 -10 -4 -10 -6 0 -10 -3 -9 -7 1 -5 -12 -36 -28 -70 -17 -34
-26 -59 -21 -56 5 3 2 -5 -7 -19 -8 -13 -18 -35 -20 -48 -2 -14 -5 -25 -6 -25
-1 0 -3 -7 -5 -15 -2 -8 -6 -25 -9 -37 -15 -59 -23 -101 -31 -163 -2 -14 -4
-25 -5 -25 -3 0 -9 -116 -9 -180 0 -92 4 -168 24 -415 6 -66 15 -165 19 -195
4 -28 14 -123 21 -190 2 -16 4 -30 5 -30 1 0 4 -16 6 -35 6 -64 13 -125 19
-160 4 -19 8 -51 10 -70 2 -19 6 -48 9 -65 4 -16 9 -46 11 -65 3 -19 8 -44 10
-56 3 -12 7 -39 10 -60 5 -38 15 -93 21 -124 3 -13 8 -40 18 -105 2 -11 4 -20
6 -20 1 0 3 -11 5 -25 2 -14 6 -42 9 -63 3 -20 7 -41 10 -46 3 -5 8 -28 11
-51 3 -24 8 -46 10 -50 3 -5 7 -27 10 -50 3 -24 8 -47 11 -52 3 -5 7 -21 9
-36 3 -15 7 -38 10 -52 3 -14 8 -36 11 -50 3 -14 7 -33 10 -42 6 -21 16 -67
18 -88 1 -9 5 -21 10 -28 4 -6 4 -16 1 -22 -3 -5 -1 -10 5 -10 6 0 9 -4 6 -8
-3 -5 -1 -26 5 -47 6 -20 13 -47 15 -59 8 -35 12 -51 15 -56 1 -3 3 -9 4 -15
10 -57 19 -92 24 -100 3 -5 6 -14 7 -20 1 -5 5 -25 9 -44 3 -19 9 -39 12 -45
4 -6 8 -17 9 -26 5 -32 10 -50 16 -56 4 -3 4 -12 2 -19 -3 -7 0 -16 5 -20 6
-3 9 -11 5 -16 -3 -5 0 -16 6 -24 7 -8 9 -15 5 -15 -4 0 -3 -6 2 -12 6 -7 9
-21 8 -30 -2 -10 2 -18 8 -18 5 0 8 -3 4 -6 -3 -3 1 -23 8 -45 8 -22 14 -40
14 -42 -2 -4 22 -91 28 -107 3 -8 5 -20 4 -27 -1 -6 3 -14 8 -18 6 -3 8 -12 4
-20 -3 -8 0 -15 6 -15 6 0 10 -3 9 -7 -4 -13 24 -117 35 -130 5 -7 6 -13 2
-13 -4 0 -2 -6 4 -13 6 -8 8 -17 4 -20 -3 -4 0 -13 7 -22 7 -8 9 -15 5 -15 -4
0 -3 -6 2 -12 6 -7 13 -25 17 -40 3 -16 11 -28 17 -28 6 0 7 -4 4 -10 -3 -5
-2 -10 2 -10 10 0 34 -60 41 -100 7 -44 2 -165 -8 -177 -2 -2 -4 -7 -5 -13 -1
-5 -3 -11 -5 -12 -1 -2 -3 -11 -5 -21 -2 -10 -7 -26 -11 -35 -4 -9 -9 -23 -11
-29 -1 -7 -5 -19 -6 -25 -2 -7 -7 -21 -10 -30 -4 -10 -10 -26 -14 -35 -8 -24
-14 -46 -15 -60 -1 -7 -5 -13 -9 -13 -7 0 -24 -59 -21 -72 1 -5 -3 -8 -8 -8
-6 0 -10 -6 -9 -12 1 -7 -4 -26 -11 -43 -14 -33 -21 -53 -22 -72 -1 -7 -6 -13
-11 -13 -6 0 -8 -3 -4 -6 3 -4 0 -19 -8 -34 -8 -15 -11 -30 -8 -34 4 -3 1 -6
-5 -6 -6 0 -9 -7 -6 -15 4 -8 1 -15 -7 -15 -7 0 -10 -3 -6 -6 3 -4 -1 -20 -9
-36 -8 -16 -12 -33 -9 -38 3 -6 1 -10 -4 -10 -6 0 -10 -3 -9 -7 0 -5 -1 -15
-5 -23 -9 -23 -41 -123 -44 -140 -5 -19 -8 -31 -16 -50 -7 -17 -28 -95 -34
-125 -8 -35 -11 -50 -13 -50 -2 0 -9 -33 -15 -65 -2 -14 -5 -25 -6 -25 -1 0
-3 -9 -5 -20 -2 -11 -6 -31 -8 -45 -9 -45 -25 -155 -31 -210 -2 -14 -4 -25 -5
-25 -1 0 -3 -20 -5 -45 -2 -25 -6 -70 -10 -100 -26 -237 -37 -441 -38 -740 -1
-298 14 -586 38 -751 3 -20 7 -54 10 -75 6 -60 14 -116 20 -144 3 -14 8 -41
11 -60 3 -19 7 -46 9 -60 5 -30 11 -65 19 -102 3 -16 8 -38 10 -50 3 -13 8
-34 11 -48 4 -14 7 -35 8 -47 1 -13 5 -23 11 -23 5 0 7 -2 4 -5 -3 -3 8 -56
24 -118 16 -62 30 -120 33 -130 2 -9 6 -21 9 -25 3 -5 8 -24 11 -42 3 -19 10
-39 15 -46 6 -6 7 -14 3 -17 -3 -4 -1 -12 5 -20 6 -7 13 -24 15 -37 3 -14 12
-45 22 -70 9 -25 17 -50 19 -57 1 -7 5 -16 9 -19 4 -4 7 -18 7 -31 0 -12 5
-23 11 -23 5 0 7 -4 4 -10 -3 -5 -1 -10 4 -10 6 0 10 -3 9 -7 -3 -11 33 -115
44 -129 5 -7 11 -22 13 -35 3 -12 10 -26 16 -29 6 -4 10 -10 10 -14 -1 -3 -1
-7 0 -8 0 -2 2 -12 4 -22 2 -10 9 -22 15 -26 7 -4 11 -10 10 -14 -3 -13 24
-76 33 -76 4 0 5 -4 2 -10 -3 -5 -1 -10 5 -10 6 0 8 -5 5 -11 -4 -5 0 -18 8
-27 9 -9 15 -19 15 -22 -1 -8 43 -93 65 -124 13 -18 15 -26 6 -21 -9 5 -8 1 3
-12 10 -11 18 -25 18 -31 0 -7 5 -12 10 -12 6 0 10 -6 10 -14 0 -7 11 -30 25
-50 14 -21 20 -34 13 -30 -7 4 -5 -2 4 -13 10 -11 18 -25 18 -32 0 -7 5 -9 10
-6 6 3 10 -3 10 -14 0 -12 5 -21 10 -21 6 0 10 -7 10 -15 0 -8 5 -15 11 -15 5
0 7 -5 4 -10 -3 -5 -1 -10 5 -10 6 0 8 -5 5 -10 -3 -6 1 -13 9 -16 9 -3 16
-14 16 -24 0 -10 10 -25 22 -34 13 -9 17 -14 10 -10 -8 3 -1 -12 15 -34 15
-22 35 -50 43 -62 8 -12 22 -29 30 -38 8 -9 13 -18 11 -20 -2 -2 8 -17 23 -32
14 -16 26 -31 26 -35 0 -3 6 -13 13 -20 28 -32 37 -45 37 -52 0 -5 8 -16 18
-24 9 -9 31 -34 47 -55 17 -21 58 -67 93 -103 34 -35 62 -69 62 -74 0 -6 3 -7
7 -4 3 4 15 -5 25 -20 10 -16 18 -24 18 -20 0 4 11 -3 25 -17 13 -13 42 -37
62 -53 21 -15 42 -34 46 -40 4 -7 12 -13 18 -13 5 0 15 -5 22 -10 46 -39 61
-50 68 -50 4 0 14 -6 21 -12 7 -7 27 -20 43 -28 17 -8 46 -25 66 -37 20 -12
40 -19 43 -16 3 4 6 1 6 -5 0 -7 3 -11 8 -10 4 1 17 -3 28 -10 12 -6 24 -8 28
-5 3 3 6 1 6 -5 0 -7 8 -12 18 -12 10 0 22 -3 26 -7 4 -5 11 -8 14 -9 4 0 15
-4 24 -8 9 -4 25 -9 35 -11 10 -2 19 -4 21 -5 1 -2 7 -4 12 -5 6 -1 13 -4 18
-5 4 -2 12 -4 17 -5 6 -1 30 -7 54 -14 25 -7 56 -14 70 -16 14 -2 26 -5 26 -6
0 -3 46 -9 78 -11 15 -1 27 -4 27 -7 0 -3 17 -7 38 -7 20 -1 73 -5 117 -9 98
-9 296 -9 390 -1 39 4 90 9 115 11 25 2 57 6 71 9 14 3 42 7 62 8 20 2 37 5
37 8 0 3 8 6 18 7 20 1 66 9 102 17 14 4 36 8 50 11 14 3 40 9 58 14 17 5 32
7 32 4 0 -3 7 0 15 7 8 7 15 10 15 6 0 -3 16 1 36 9 20 8 40 12 45 9 5 -3 9
-1 9 4 0 5 6 9 13 10 6 0 26 4 42 7 17 4 36 8 43 8 6 0 12 4 12 8 0 4 18 10
40 14 22 4 40 11 40 16 0 5 3 8 8 8 4 -1 9 0 12 1 3 1 12 3 20 5 8 1 26 6 40
9 25 7 25 6 27 -51 0 -32 4 -128 7 -213 4 -85 9 -220 11 -300 2 -80 7 -206 10
-280 3 -74 8 -184 10 -245 4 -99 8 -172 20 -375 2 -36 6 -105 10 -155 3 -49 8
-117 10 -150 3 -33 7 -87 10 -120 5 -63 14 -169 20 -245 2 -25 6 -74 10 -110
3 -36 8 -90 11 -120 6 -62 12 -125 19 -185 3 -22 7 -60 10 -85 2 -25 7 -65 9
-90 3 -25 8 -65 10 -90 2 -25 7 -65 10 -90 3 -25 8 -67 12 -95 6 -51 10 -81
19 -145 2 -19 7 -55 9 -80 6 -54 13 -105 20 -145 3 -16 8 -48 10 -70 3 -22 8
-58 11 -80 3 -22 8 -55 11 -72 2 -18 7 -50 10 -70 3 -21 7 -51 9 -68 2 -16 4
-30 5 -30 1 0 3 -11 5 -25 5 -36 15 -101 20 -130 2 -14 6 -38 9 -55 3 -16 8
-46 11 -65 4 -19 8 -46 10 -60 2 -14 6 -41 10 -60 8 -43 15 -87 20 -120 2 -14
4 -25 5 -25 1 0 4 -11 6 -25 6 -43 16 -102 29 -162 7 -40 14 -78 21 -117 3
-18 8 -43 10 -55 3 -11 7 -31 10 -43 11 -60 14 -75 20 -100 3 -16 7 -39 9 -53
2 -14 4 -25 5 -25 2 0 10 -36 15 -65 2 -14 6 -36 10 -50 14 -59 18 -76 17 -92
0 -10 3 -20 8 -23 5 -3 7 -12 3 -20 -3 -9 0 -22 7 -30 7 -8 10 -22 6 -30 -3
-8 -2 -15 2 -15 4 0 8 -8 9 -17 2 -25 11 -66 29 -136 3 -12 7 -33 9 -47 2 -14
4 -25 5 -25 2 0 9 -31 15 -65 2 -14 4 -25 5 -25 1 0 3 -7 5 -15 2 -8 7 -26 10
-40 3 -14 8 -36 11 -50 3 -14 7 -32 9 -40 2 -8 4 -15 5 -15 4 0 21 -86 21
-107 0 -10 5 -18 11 -18 5 0 8 -6 5 -14 -3 -8 -3 -17 1 -20 6 -6 10 -21 16
-61 2 -11 4 -20 5 -20 2 0 4 -7 6 -15 2 -8 7 -26 10 -40 4 -14 8 -33 8 -42 1
-10 5 -18 10 -18 4 0 6 -4 3 -8 -3 -5 2 -27 10 -51 8 -23 16 -52 18 -64 3 -12
5 -24 6 -27 1 -3 3 -9 5 -15 1 -5 3 -12 4 -15 2 -3 4 -12 6 -20 16 -66 17 -68
34 -130 8 -25 14 -50 15 -57 1 -7 5 -16 9 -19 4 -4 7 -19 7 -34 0 -14 4 -30 9
-35 6 -6 11 -21 13 -35 2 -14 7 -31 12 -38 4 -7 5 -16 2 -19 -3 -3 -1 -11 4
-18 5 -6 11 -20 13 -31 1 -10 6 -25 10 -31 5 -7 5 -13 1 -13 -3 0 -1 -7 6 -15
7 -9 10 -18 7 -21 -3 -3 1 -20 8 -39 8 -18 11 -35 8 -39 -4 -3 -1 -6 5 -6 6 0
9 -7 6 -15 -4 -8 -1 -15 6 -15 7 0 10 -6 7 -14 -3 -7 0 -19 6 -25 6 -6 8 -11
4 -11 -4 0 -1 -13 8 -30 9 -16 13 -30 9 -30 -4 0 -1 -7 6 -15 7 -8 10 -15 6
-15 -3 0 0 -16 8 -35 8 -19 13 -35 11 -35 -2 0 4 -19 14 -42 10 -24 16 -49 14
-55 -3 -7 0 -13 7 -13 6 0 9 -4 5 -9 -3 -5 0 -13 6 -16 5 -4 8 -13 5 -21 -3
-8 -2 -14 3 -14 4 0 8 -6 9 -12 1 -26 11 -60 26 -89 8 -16 10 -27 5 -23 -5 3
-1 -9 11 -28 11 -18 20 -42 20 -54 0 -11 3 -24 7 -28 7 -6 13 -29 15 -53 1 -7
6 -13 11 -13 5 0 7 -7 4 -15 -4 -8 -2 -17 4 -20 5 -4 7 -11 4 -16 -4 -5 -1 -9
5 -9 6 0 10 -6 9 -12 -2 -12 12 -51 33 -92 6 -11 6 -16 0 -12 -5 3 -1 -11 9
-31 10 -20 16 -40 13 -44 -3 -5 0 -9 6 -9 6 0 9 -4 5 -9 -3 -5 -1 -12 5 -16 5
-3 10 -17 10 -31 0 -13 4 -24 8 -24 5 0 9 -7 10 -15 1 -8 3 -22 4 -30 1 -8 5
-15 10 -15 5 0 6 -4 3 -10 -3 -5 -1 -10 5 -10 7 0 10 -7 6 -15 -3 -8 -1 -15 5
-15 6 0 7 -5 3 -11 -3 -6 -1 -14 5 -18 6 -4 13 -16 15 -27 8 -41 11 -49 19
-55 4 -3 9 -16 10 -27 1 -12 5 -22 10 -22 4 0 6 -4 2 -9 -3 -5 -1 -12 5 -16 6
-4 8 -11 5 -16 -4 -5 -1 -9 6 -9 7 0 10 -3 6 -6 -3 -4 0 -19 8 -34 8 -15 11
-30 8 -34 -4 -3 -1 -6 6 -6 7 0 10 -4 6 -9 -3 -5 -1 -12 5 -16 6 -4 8 -10 5
-15 -3 -5 -1 -11 5 -15 6 -4 8 -11 5 -16 -4 -5 -1 -9 5 -9 6 0 8 -4 5 -10 -3
-5 -1 -10 6 -10 7 0 10 -3 7 -6 -4 -3 0 -17 7 -31 8 -15 12 -30 9 -35 -3 -4 0
-8 6 -8 6 0 8 -5 5 -10 -3 -6 -1 -10 5 -10 6 0 10 -6 8 -12 -1 -7 6 -28 15
-45 10 -18 15 -33 11 -33 -3 0 4 -16 16 -35 12 -19 18 -35 15 -35 -4 0 -2 -6
4 -13 6 -8 8 -17 4 -20 -3 -4 -1 -7 6 -7 7 0 9 -4 6 -10 -3 -5 -2 -10 3 -10 9
0 26 -55 23 -73 0 -4 4 -7 10 -7 5 0 8 -4 5 -9 -4 -5 -1 -11 4 -13 6 -2 12
-13 13 -26 0 -12 4 -22 8 -22 4 0 13 -20 20 -45 7 -25 17 -45 22 -45 4 0 5 -4
2 -10 -3 -5 -1 -10 5 -10 7 0 10 -7 6 -15 -3 -8 -2 -15 3 -15 8 0 25 -49 21
-59 -1 -2 3 -7 9 -11 6 -3 14 -17 16 -30 2 -13 10 -27 16 -31 6 -4 8 -12 5
-18 -4 -6 -2 -11 5 -11 7 0 9 -3 6 -6 -4 -4 3 -20 14 -35 11 -16 17 -33 14
-39 -3 -5 -1 -10 5 -10 6 0 8 -4 5 -10 -3 -5 -2 -10 3 -10 9 0 25 -37 23 -52
-1 -5 4 -8 11 -8 6 0 8 -3 5 -6 -3 -4 -1 -16 5 -28 7 -11 11 -24 10 -28 -1 -5
3 -8 9 -8 5 0 7 -4 4 -10 -3 -5 -2 -10 4 -10 6 0 8 -7 5 -15 -4 -8 1 -17 10
-21 9 -3 14 -10 11 -14 -3 -5 -1 -11 5 -15 6 -4 8 -11 5 -16 -4 -5 -1 -9 5 -9
6 0 8 -4 5 -10 -3 -5 -1 -10 5 -10 6 0 8 -4 5 -10 -3 -5 -1 -10 5 -10 6 0 8
-4 5 -10 -3 -6 -1 -10 6 -10 7 0 9 -3 6 -7 -4 -3 -1 -13 7 -22 8 -9 16 -25 18
-36 1 -11 5 -22 8 -25 12 -12 30 -51 30 -65 0 -8 4 -15 9 -15 8 0 24 -37 22
-52 -1 -5 4 -8 10 -8 5 0 7 -4 4 -10 -3 -5 -1 -10 5 -10 6 0 8 -4 5 -10 -3 -6
-1 -10 5 -10 7 0 10 -7 6 -15 -3 -8 -2 -15 3 -15 9 0 35 -51 33 -62 -1 -5 3
-8 10 -8 6 0 8 -3 5 -6 -4 -4 3 -20 14 -35 11 -16 17 -29 12 -29 -4 0 -3 -4 2
-8 15 -10 39 -55 25 -47 -6 3 3 -13 19 -37 16 -23 27 -46 25 -50 -3 -5 -1 -8
5 -8 6 0 15 -10 22 -21 9 -17 8 -20 -3 -14 -7 3 -5 0 4 -8 10 -8 15 -17 11
-20 -3 -4 -1 -7 6 -7 7 0 9 -4 6 -10 -3 -6 -1 -10 5 -10 6 0 8 -4 5 -10 -3 -5
-1 -10 5 -10 6 0 8 -5 5 -10 -3 -6 -1 -10 5 -10 6 0 8 -4 5 -10 -3 -5 -1 -10
5 -10 6 0 9 -4 6 -9 -3 -5 1 -12 10 -15 8 -3 12 -10 9 -16 -3 -5 -1 -10 4 -10
6 0 10 -3 9 -7 -3 -7 15 -40 56 -102 6 -10 5 -12 -5 -7 -8 4 -6 1 3 -7 10 -8
15 -17 11 -20 -3 -4 -1 -7 5 -7 7 0 12 -6 12 -14 0 -7 7 -19 15 -26 8 -7 12
-16 9 -21 -3 -5 0 -9 7 -9 7 0 9 -3 6 -7 -4 -3 3 -18 15 -31 13 -14 16 -22 8
-18 -8 4 -6 0 4 -8 11 -9 16 -16 12 -16 -4 0 0 -7 8 -16 9 -8 14 -19 11 -24
-3 -4 2 -11 11 -14 8 -3 12 -10 9 -16 -3 -5 -1 -10 6 -10 7 0 10 -3 6 -6 -3
-3 2 -14 11 -25 9 -11 18 -24 18 -29 1 -6 2 -15 3 -21 0 -5 6 -7 11 -4 6 3 10
1 10 -6 0 -7 8 -21 17 -32 13 -15 14 -19 3 -13 -8 4 -6 0 4 -8 11 -9 16 -16
11 -16 -5 0 -1 -6 10 -13 10 -8 15 -18 12 -24 -3 -5 3 -15 13 -23 10 -8 17
-17 14 -22 -3 -4 0 -8 6 -8 6 0 9 -4 6 -9 -3 -5 1 -12 10 -15 8 -3 12 -10 9
-16 -3 -5 -1 -10 5 -10 6 0 9 -4 5 -9 -3 -6 3 -14 12 -20 10 -6 14 -11 8 -11
-7 0 -7 -3 0 -8 18 -13 58 -75 44 -68 -8 4 -3 -2 11 -14 14 -12 19 -18 11 -14
-9 5 -8 -2 5 -19 10 -15 23 -27 27 -27 5 0 5 -4 2 -10 -3 -5 -1 -10 5 -10 6 0
9 -4 6 -9 -3 -5 1 -11 9 -15 8 -3 15 -12 15 -21 0 -8 5 -15 10 -15 6 0 10 -7
10 -15 0 -8 5 -15 11 -15 5 0 7 -5 4 -10 -3 -6 1 -13 9 -16 9 -3 13 -10 10
-15 -3 -5 -2 -9 3 -9 4 0 17 -12 27 -27 13 -17 14 -24 5 -19 -8 4 -5 -1 6 -11
12 -10 27 -27 35 -37 13 -18 13 -19 0 -11 -8 4 -6 -2 5 -13 33 -35 46 -52 39
-52 -3 0 4 -9 17 -21 13 -11 17 -18 9 -14 -13 6 -13 5 0 -7 28 -25 56 -62 40
-53 -8 4 -6 -1 5 -12 36 -37 53 -61 48 -67 -3 -3 2 -8 11 -12 9 -3 16 -12 16
-20 0 -8 5 -14 10 -14 6 0 10 -4 10 -10 0 -9 19 -36 48 -66 7 -8 10 -14 5 -14
-4 0 3 -10 17 -21 14 -11 18 -18 10 -14 -8 4 -4 -3 9 -14 13 -12 20 -21 17
-21 -8 0 11 -24 42 -52 12 -12 22 -28 22 -35 0 -7 3 -13 8 -13 4 0 20 -17 37
-38 18 -23 22 -32 10 -23 -19 13 17 -28 58 -67 9 -9 17 -21 17 -27 0 -6 9 -17
20 -25 11 -8 20 -19 20 -24 0 -9 17 -29 58 -68 12 -12 22 -25 22 -30 0 -9 40
-57 80 -97 14 -13 18 -21 10 -16 -8 4 3 -10 25 -30 22 -21 33 -34 25 -30 -8 5
5 -12 30 -37 60 -62 82 -88 72 -88 -4 -1 4 -7 18 -15 14 -8 21 -14 16 -15 -6
0 7 -15 27 -34 20 -18 37 -39 37 -45 0 -7 5 -9 10 -6 5 3 10 1 10 -5 0 -7 16
-27 35 -46 19 -18 35 -38 35 -44 0 -6 4 -8 10 -5 5 3 10 2 10 -4 0 -6 16 -26
35 -45 19 -20 35 -40 35 -45 0 -5 5 -13 12 -17 7 -5 8 -3 3 7 -5 8 7 -2 26
-21 20 -19 34 -38 32 -42 -2 -5 3 -8 12 -8 9 0 14 -3 12 -8 -2 -4 55 -65 127
-137 71 -71 126 -124 121 -116 -5 10 -4 12 3 7 7 -4 12 -14 12 -22 0 -8 5 -13
12 -12 6 2 17 -8 25 -22 7 -14 13 -21 13 -17 0 4 22 -15 50 -43 27 -27 54 -50
60 -50 6 0 8 -4 5 -10 -3 -5 -1 -10 6 -10 7 0 32 -20 55 -44 23 -25 45 -42 48
-39 3 4 6 -1 6 -10 0 -10 6 -16 13 -15 6 2 11 -2 10 -9 -2 -6 6 -15 17 -18 11
-4 20 -11 20 -17 0 -6 3 -8 7 -5 4 4 24 -12 46 -35 22 -24 36 -36 32 -28 -4 8
11 -5 35 -30 24 -25 39 -38 35 -30 -4 8 4 3 17 -12 14 -15 28 -25 32 -21 4 4
9 -3 13 -15 3 -12 9 -20 13 -17 4 3 11 -2 14 -11 3 -8 10 -12 16 -9 5 3 10 1
10 -5 0 -6 11 -15 25 -20 14 -5 25 -17 25 -25 0 -9 4 -13 10 -10 5 3 17 -3 27
-15 10 -11 22 -20 28 -20 6 0 21 -11 32 -24 11 -13 35 -32 52 -42 17 -10 31
-22 31 -26 0 -4 7 -8 15 -8 8 0 19 -9 25 -20 6 -11 15 -18 21 -15 5 4 12 -1
15 -9 3 -9 10 -14 14 -11 4 3 10 -2 14 -10 3 -8 12 -15 20 -15 7 0 17 -7 20
-16 3 -8 10 -13 15 -9 6 3 14 -3 20 -12 6 -10 11 -14 11 -10 0 5 7 2 15 -5 33
-30 45 -38 45 -32 0 3 9 -4 21 -17 11 -13 18 -17 14 -9 -4 8 1 6 9 -4 9 -11
16 -16 16 -12 0 4 7 1 15 -6 33 -29 45 -38 45 -33 0 4 7 0 15 -7 34 -31 43
-36 49 -31 3 4 6 0 6 -7 0 -7 3 -11 6 -7 4 3 12 1 20 -6 34 -30 44 -37 57 -37
8 0 22 -10 31 -23 9 -12 14 -16 10 -9 -5 11 -2 11 15 0 12 -7 21 -16 21 -21 0
-4 5 -5 10 -2 6 3 10 1 10 -5 0 -6 5 -8 10 -5 6 3 10 3 10 -2 0 -4 23 -19 50
-32 28 -14 50 -29 50 -33 0 -4 9 -8 20 -8 11 0 20 -5 20 -11 0 -5 5 -7 10 -4
6 3 10 1 10 -5 0 -6 5 -8 10 -5 6 3 10 1 10 -4 0 -6 5 -11 11 -11 6 0 23 -9
39 -20 15 -11 30 -17 34 -13 3 3 6 1 6 -6 0 -7 5 -9 10 -6 6 3 10 1 10 -4 0
-6 3 -10 8 -9 4 1 36 -13 72 -32 36 -19 71 -35 78 -36 8 -1 21 -9 30 -17 10
-8 23 -12 30 -10 6 3 12 0 12 -6 0 -6 3 -11 8 -10 15 2 52 -14 52 -23 0 -5 6
-8 13 -6 6 1 36 -10 65 -25 28 -15 52 -25 52 -22 0 3 10 -1 23 -10 13 -8 27
-12 30 -8 4 3 7 0 7 -7 0 -7 3 -10 7 -7 3 4 12 2 20 -4 7 -6 13 -8 13 -5 0 4
10 1 23 -6 12 -7 25 -13 30 -14 4 -1 10 -3 15 -4 4 -1 10 -2 15 -1 4 0 7 -4 7
-10 0 -5 4 -8 9 -5 4 3 16 -1 27 -8 10 -8 24 -12 31 -9 7 3 13 0 13 -7 0 -6 4
-9 9 -5 5 3 12 1 16 -5 4 -6 10 -8 15 -5 5 3 11 1 15 -5 4 -6 11 -8 16 -5 5 4
9 2 9 -3 0 -5 6 -9 13 -10 22 -2 42 -7 55 -15 6 -5 12 -5 12 -1 0 3 6 2 13 -3
13 -11 67 -27 80 -25 4 1 7 -3 7 -9 0 -6 8 -8 19 -4 11 3 22 1 26 -5 3 -6 10
-8 15 -5 5 3 11 1 15 -5 4 -6 11 -8 16 -5 5 4 9 2 9 -4 0 -5 8 -8 18 -6 9 1
23 -2 30 -8 6 -5 12 -6 12 -2 0 4 7 2 15 -5 9 -7 18 -10 22 -7 3 4 12 2 20 -5
7 -6 16 -8 20 -5 3 4 11 3 17 -2 6 -5 27 -12 46 -15 34 -7 60 -12 70 -16 3 -1
10 -3 15 -5 6 -1 12 -3 15 -4 3 -2 14 -4 25 -6 19 -2 34 -6 95 -20 14 -3 39
-8 55 -10 39 -7 70 -13 70 -15 0 -1 14 -3 30 -5 53 -7 99 -13 135 -20 186 -34
649 -52 1025 -40 199 7 455 17 535 21 41 2 275 6 520 9 434 4 523 7 625 21 28
4 66 8 85 9 19 2 35 4 35 5 0 1 14 4 30 6 69 9 90 12 90 14 0 2 14 4 30 5 17
2 31 4 33 5 1 1 11 4 22 5 11 1 21 3 23 4 2 2 15 5 67 15 14 2 25 5 25 6 0 2
3 2 60 15 43 9 60 13 60 15 0 2 13 5 55 13 14 3 38 10 53 16 16 6 39 11 53 11
13 0 24 5 24 11 0 6 6 9 13 6 6 -2 20 0 30 5 19 10 53 19 75 20 6 1 12 5 12
10 0 4 3 7 8 7 4 -1 9 0 12 1 3 1 13 3 23 5 10 2 26 7 35 11 9 4 20 8 24 8 3
1 9 4 13 8 4 4 13 4 21 1 8 -3 14 0 14 7 0 6 4 9 9 5 5 -3 12 -1 16 4 3 6 12
8 20 4 8 -3 15 -1 15 4 0 5 21 15 48 23 26 7 65 21 87 31 21 10 43 15 47 13 4
-3 8 0 8 6 0 6 5 8 10 5 6 -3 10 -1 10 5 0 6 4 9 9 5 5 -3 12 -1 16 5 4 6 10
8 15 5 5 -3 11 -1 15 5 4 6 11 8 16 5 5 -4 9 -1 9 5 0 7 7 10 15 6 8 -3 15 -2
15 3 0 5 10 12 23 16 38 12 41 13 77 27 19 7 38 18 42 23 4 6 8 6 8 1 0 -5 7
-3 15 4 8 7 15 9 15 5 0 -5 9 0 20 10 11 10 20 14 20 10 0 -5 5 -4 12 3 7 7
20 12 30 12 10 0 18 5 18 12 0 6 3 8 7 5 3 -4 12 -2 20 4 7 6 13 8 13 5 0 -4
13 2 29 13 15 11 31 18 35 14 3 -3 6 0 6 7 0 7 3 10 7 7 3 -4 12 -2 20 4 7 6
13 8 13 5 0 -4 7 0 16 8 8 9 24 16 35 16 10 0 19 5 19 11 0 5 5 7 10 4 6 -3
10 -1 10 5 0 6 5 8 10 5 6 -3 10 -1 10 4 0 6 5 11 11 11 6 0 23 9 39 20 15 11
30 17 34 13 3 -3 6 -1 6 6 0 7 5 9 10 6 6 -3 10 -1 10 5 0 6 5 8 10 5 6 -3 10
-1 10 6 0 7 3 9 7 6 3 -4 12 1 20 11 10 11 12 12 8 2 -4 -8 1 -6 9 4 9 11 16
16 16 10 0 -5 5 -1 11 9 6 9 14 15 20 12 5 -4 9 -1 9 5 0 6 5 8 10 5 6 -3 13
1 16 9 3 9 10 13 15 10 5 -3 9 0 9 5 0 6 7 11 15 11 8 0 15 5 15 11 0 5 4 8 9
5 5 -3 11 1 15 9 3 8 12 15 21 15 8 0 15 5 15 11 0 5 4 8 9 4 6 -3 14 3 20 12
6 10 11 14 11 8 0 -5 5 -3 10 5 5 8 13 15 17 15 5 0 19 10 33 22 13 13 29 23
36 23 6 0 19 11 28 25 9 14 21 23 26 20 5 -3 14 4 20 15 6 11 16 20 23 20 7 0
23 14 36 30 13 17 28 30 33 30 6 0 26 18 46 40 19 22 37 39 39 36 5 -5 101 91
121 120 7 10 10 13 6 5 -5 -9 -3 -12 4 -7 7 4 12 12 12 18 0 6 15 25 33 43 44
44 78 85 100 118 10 15 22 25 27 22 5 -3 11 4 15 15 3 11 11 20 16 20 6 0 7 5
4 10 -3 6 1 10 9 10 9 0 15 4 14 9 -2 5 11 21 27 36 17 15 23 24 15 20 -8 -5
-6 1 5 12 41 41 75 83 75 93 0 5 7 10 15 10 8 0 14 4 13 8 -3 8 36 61 73 102
9 10 28 34 41 54 14 20 28 33 31 29 4 -3 7 0 7 8 0 9 10 26 23 39 12 14 22 27
22 30 0 4 7 14 15 23 31 34 45 52 45 57 0 6 21 32 49 60 11 11 17 20 13 20 -6
0 13 26 41 55 6 8 12 18 12 24 0 6 5 11 11 11 5 0 7 5 4 10 -3 6 1 10 10 10 9
0 13 5 10 10 -3 6 -1 10 4 10 6 0 10 4 9 9 -2 5 6 17 17 26 11 9 13 14 5 10
-8 -4 -6 1 4 9 11 9 16 16 12 16 -5 0 3 12 18 26 14 15 26 33 26 40 0 8 5 14
10 14 6 0 10 7 10 16 0 8 4 13 9 10 5 -3 12 5 15 19 4 14 11 25 17 25 6 0 7 4
4 10 -3 6 -1 10 4 10 6 0 11 7 11 15 0 8 5 15 11 15 5 0 8 4 5 9 -4 5 -3 11 1
13 15 6 62 76 56 82 -4 3 -1 6 6 6 7 0 9 4 6 10 -3 5 -1 10 4 10 6 0 11 6 11
14 0 8 7 17 16 20 8 3 12 10 9 16 -3 5 -1 10 5 10 6 0 8 5 5 10 -3 6 -1 10 4
10 6 0 11 5 11 11 0 7 8 18 18 26 11 10 12 12 2 8 -10 -4 -9 -2 2 8 10 8 15
17 11 20 -3 4 0 7 7 7 7 0 11 3 7 6 -3 3 2 14 11 25 9 11 17 23 16 27 -1 4 6
13 15 20 13 11 13 12 1 7 -13 -6 -13 -5 0 7 8 7 16 20 18 28 2 8 8 16 13 18 5
2 9 12 9 22 0 9 7 23 15 30 8 7 15 19 15 26 0 8 5 14 12 14 6 0 8 3 5 7 -4 3
1 12 11 20 9 8 11 12 5 8 -8 -4 -11 -1 -7 9 3 8 12 17 20 20 9 3 12 10 9 16
-3 5 -1 10 6 10 7 0 9 3 6 6 -4 4 2 19 13 34 11 15 17 30 13 34 -3 3 -1 6 6 6
7 0 9 5 6 10 -3 6 -1 10 5 10 6 0 8 4 5 10 -3 5 -1 10 6 10 7 0 10 2 7 5 -3 3
14 42 37 85 24 44 39 78 35 75 -4 -3 -3 6 3 20 7 14 16 25 20 25 5 0 5 5 2 10
-3 6 -1 10 5 10 6 0 9 4 5 9 -3 5 2 17 11 26 9 9 14 19 10 22 -3 3 2 12 12 20
10 9 11 12 2 7 -11 -6 -10 -2 3 13 9 11 14 23 10 26 -3 4 -1 7 5 7 6 0 9 7 6
15 -4 8 -1 15 5 15 6 0 10 3 9 8 0 4 7 25 17 47 10 22 18 43 17 48 -1 4 2 7 8
7 5 0 10 9 10 20 0 11 5 20 11 20 5 0 7 5 4 10 -3 6 -1 10 5 10 6 0 9 4 6 9
-7 10 16 61 27 61 5 0 5 5 2 10 -3 6 -1 10 4 10 6 0 10 3 10 8 -1 4 0 10 1 15
1 4 3 10 4 15 1 4 11 25 21 47 10 22 17 43 17 48 -1 4 3 7 9 7 5 0 8 4 4 9 -3
5 -1 12 5 16 6 4 8 11 5 16 -4 5 -1 9 5 9 6 0 9 4 5 9 -3 5 2 17 11 25 8 9 12
16 8 16 -3 0 -1 6 5 13 6 8 8 17 4 20 -3 4 -1 7 5 7 7 0 12 8 12 18 0 9 9 32
21 51 11 18 18 36 15 38 -3 3 2 20 11 37 10 17 18 34 19 39 1 4 3 9 4 12 1 3
3 8 5 13 1 4 8 21 15 37 7 17 13 33 12 38 -1 4 2 7 6 7 4 0 8 10 9 22 1 11 7
24 13 28 6 4 10 11 8 16 -1 5 3 19 10 32 7 12 10 22 6 22 -3 0 -1 6 5 13 6 8
8 17 4 20 -3 4 -1 7 6 7 7 0 9 5 6 10 -3 6 -2 10 3 10 5 0 9 7 10 15 1 8 3 22
4 30 1 8 5 15 10 15 5 0 7 4 3 9 -3 5 -1 12 5 16 6 4 8 10 5 15 -3 5 -1 11 5
15 6 4 8 11 5 16 -4 5 -2 9 4 9 6 0 8 7 5 15 -4 8 -1 15 6 15 6 0 9 4 5 9 -3
5 -1 12 5 16 6 4 8 10 5 15 -3 5 -1 11 5 15 6 4 8 11 5 16 -4 5 -1 9 5 9 6 0
9 4 5 9 -3 5 -1 12 4 16 6 3 8 12 4 20 -3 8 0 15 6 15 7 0 11 6 10 13 -1 6 0
19 3 27 4 8 9 24 14 35 4 11 6 26 5 33 -1 6 3 12 10 12 6 0 9 6 6 14 -3 8 -3
17 1 20 3 4 7 13 9 21 4 22 11 49 13 55 1 3 2 8 1 13 0 4 3 7 9 7 5 0 7 6 4
14 -3 8 -1 17 5 20 6 4 8 13 4 21 -3 8 -1 15 4 15 5 0 10 8 11 18 2 20 10 56
12 60 2 1 4 7 5 12 1 6 3 11 4 13 2 1 5 13 8 27 7 39 11 55 13 55 1 0 3 7 5
15 2 8 7 26 10 40 4 14 7 33 7 42 -1 10 4 20 9 23 5 4 7 10 5 14 -3 4 1 29 9
54 8 26 11 47 8 47 -3 0 0 6 6 14 6 7 9 21 5 30 -3 9 -2 16 3 16 5 0 9 10 8
22 -1 13 0 27 3 33 4 5 7 16 8 25 5 35 15 96 20 124 8 43 12 73 19 132 3 28 8
62 10 75 3 13 7 47 10 74 3 28 7 77 11 110 3 33 7 98 9 145 7 158 15 374 20
545 3 94 8 233 10 310 39 1197 49 2702 20 3160 -6 85 -14 191 -19 250 -3 28
-8 82 -11 120 -4 39 -8 86 -10 105 -2 19 -6 64 -9 100 -4 36 -9 82 -11 104 -4
34 -7 72 -21 216 -2 25 -6 70 -10 100 -6 58 -11 115 -19 215 -2 33 -7 92 -11
130 -7 86 -11 138 -18 235 -3 41 -8 100 -11 130 -3 30 -8 91 -11 135 -9 120
-12 163 -19 240 -3 39 -7 99 -10 135 -3 36 -7 92 -10 125 -3 33 -8 87 -10 120
-2 33 -7 92 -10 130 -3 39 -8 99 -11 135 -2 36 -7 94 -10 130 -2 36 -6 88 -7
115 -2 28 -5 55 -9 60 -3 6 -4 20 -3 33 1 12 -1 22 -5 22 -4 0 -7 6 -8 13 0 6
-3 23 -7 37 -4 14 -7 31 -7 38 -1 6 -6 12 -11 12 -6 0 -8 3 -4 6 3 4 0 13 -8
21 -8 8 -15 23 -15 34 0 10 -4 19 -10 19 -5 0 -10 6 -10 13 0 7 -9 23 -20 35
-12 12 -18 22 -14 22 4 0 -3 8 -14 19 -12 10 -19 21 -15 25 3 3 -1 6 -10 6 -9
0 -17 5 -17 11 0 14 -55 69 -70 69 -6 0 -13 7 -16 15 -4 8 -13 15 -21 15 -8 0
-11 5 -8 10 6 9 -8 14 -27 11 -5 0 -8 3 -8 8 0 12 -116 72 -124 64 -3 -4 -6 0
-6 7 0 7 -3 10 -7 7 -3 -4 -12 -2 -20 4 -7 6 -13 9 -13 6 0 -3 -15 0 -32 8
-18 7 -36 14 -40 14 -5 1 -9 1 -10 2 -26 10 -248 17 -253 8 -3 -3 -17 -5 -32
-4 -15 1 -33 -2 -38 -6 -6 -4 -20 -8 -30 -7 -11 0 -42 -3 -70 -7 -27 -4 -68
-9 -90 -11 -54 -6 -113 -13 -155 -19 -19 -2 -55 -7 -80 -9 -25 -3 -67 -8 -95
-11 -78 -9 -115 -13 -180 -20 -33 -3 -78 -8 -100 -10 -22 -2 -65 -7 -95 -11
-30 -3 -75 -7 -100 -9 -25 -2 -45 -4 -45 -5 0 -2 -20 -4 -45 -6 -83 -7 -135
-12 -200 -19 -36 -4 -78 -8 -95 -10 -16 -2 -55 -6 -85 -10 -30 -3 -77 -8 -105
-10 -27 -3 -68 -7 -90 -9 -22 -2 -69 -7 -105 -11 -36 -4 -76 -8 -90 -10 -27
-3 -114 -12 -200 -21 -73 -8 -115 -12 -175 -20 -27 -3 -68 -7 -90 -9 -22 -2
-40 -4 -40 -5 0 -1 -13 -4 -30 -5 -47 -5 -137 -15 -170 -20 -16 -3 -52 -7 -80
-10 -27 -3 -66 -7 -85 -9 -19 -3 -55 -7 -80 -10 -25 -3 -61 -8 -80 -11 -19 -4
-57 -8 -85 -11 -27 -2 -66 -6 -85 -9 -19 -3 -57 -7 -85 -10 -27 -3 -63 -7 -80
-10 -16 -3 -52 -7 -80 -10 -89 -10 -178 -21 -245 -29 -19 -3 -55 -7 -80 -10
-25 -3 -61 -7 -80 -10 -19 -3 -57 -9 -85 -12 -27 -3 -66 -8 -85 -10 -19 -3
-55 -6 -80 -8 -25 -2 -45 -5 -45 -6 0 -3 -41 -8 -110 -14 -27 -2 -50 -5 -50
-6 0 -2 -13 -4 -30 -5 -29 -3 -85 -10 -150 -19 -16 -2 -57 -7 -90 -11 -33 -4
-76 -9 -95 -11 -19 -3 -51 -7 -70 -9 -19 -2 -55 -7 -80 -10 -25 -3 -61 -7 -80
-9 -19 -2 -42 -6 -50 -9 -8 -3 -22 -5 -30 -5 -19 0 -116 -10 -150 -17 -14 -2
-52 -7 -85 -11 -33 -3 -75 -8 -92 -10 -18 -2 -48 -6 -65 -8 -18 -2 -58 -7 -88
-11 -30 -5 -68 -9 -85 -11 -16 -1 -30 -3 -30 -4 0 -1 -13 -4 -30 -5 -16 -2
-52 -6 -80 -10 -27 -4 -66 -9 -85 -11 -19 -2 -55 -6 -80 -9 -77 -10 -104 -14
-150 -19 -25 -3 -61 -8 -80 -10 -72 -10 -136 -18 -165 -21 -55 -5 -158 -20
-215 -31 -14 -3 -31 -6 -37 -6 -7 -1 -13 -5 -13 -10 0 -5 -4 -7 -9 -3 -5 3
-12 1 -16 -5 -4 -6 -11 -8 -16 -5 -5 4 -9 1 -9 -5 0 -6 -4 -9 -8 -6 -5 3 -14
-4 -22 -14 -8 -10 -18 -16 -23 -13 -6 3 -7 2 -4 -4 4 -5 -1 -19 -11 -29 -9
-10 -19 -28 -21 -39 -7 -31 -5 -176 2 -217 16 -86 38 -245 40 -290 1 -16 4
-28 7 -28 4 0 6 -10 7 -22 0 -13 3 -39 6 -58 3 -19 9 -53 12 -75 4 -22 9 -53
12 -70 5 -28 9 -55 17 -115 5 -36 18 -115 31 -197 3 -18 7 -45 9 -60 2 -16 7
-48 11 -73 8 -51 13 -88 21 -145 3 -22 7 -51 9 -65 2 -14 6 -50 10 -80 4 -30
9 -68 11 -85 5 -38 11 -86 19 -155 4 -30 8 -66 10 -80 2 -14 7 -50 10 -80 14
-116 18 -149 30 -245 4 -27 8 -70 10 -95 2 -25 4 -45 5 -45 2 0 3 -9 14 -110
14 -124 17 -151 32 -265 5 -45 13 -111 20 -175 8 -75 12 -100 14 -100 1 0 3
-8 6 -17 2 -10 6 -26 8 -35 3 -10 5 -18 6 -18 1 0 3 -10 6 -23 2 -13 10 -33
16 -45 7 -12 11 -25 10 -29 -1 -5 3 -8 8 -8 6 0 10 -5 10 -11 0 -7 8 -18 18
-26 10 -9 11 -11 2 -7 -8 4 8 -15 35 -43 28 -27 53 -48 56 -46 4 1 10 -4 13
-13 3 -8 10 -12 16 -9 5 3 10 1 10 -5 0 -6 4 -8 10 -5 5 3 10 1 10 -4 0 -6 3
-10 8 -10 4 1 9 0 12 -1 6 -2 22 -6 65 -16 65 -15 212 -6 273 17 13 5 28 7 33
3 5 -3 9 -1 9 5 0 5 8 8 18 6 9 -1 22 1 28 6 6 5 19 10 30 12 10 1 25 6 32 10
6 5 17 5 22 2 6 -3 10 -2 10 3 0 5 6 9 13 10 6 0 23 3 37 7 14 3 34 8 45 9 11
2 20 4 20 6 0 1 14 4 30 6 49 8 70 12 70 15 0 1 14 3 30 5 17 2 44 6 60 8 17
3 53 8 80 12 28 3 64 8 80 10 41 7 83 13 125 18 19 3 51 8 70 11 19 3 55 8 80
11 94 11 105 12 105 14 0 1 16 4 35 5 19 2 49 6 65 9 17 3 50 8 75 11 25 3 59
8 75 10 17 2 46 6 65 9 19 2 51 7 70 10 19 3 58 8 85 12 52 7 62 8 135 19 25
4 63 8 85 10 22 2 40 4 40 5 0 1 11 3 25 5 14 2 41 6 60 9 19 2 55 7 80 11 64
9 121 16 150 20 14 1 32 5 40 8 8 4 24 5 35 3 11 -2 25 -1 30 2 6 4 19 7 30 8
11 1 43 5 70 9 28 5 64 9 80 11 17 1 30 3 30 4 0 12 198 19 213 8 6 -6 12 -8
12 -4 0 3 9 -2 20 -11 11 -10 20 -23 20 -30 0 -7 4 -13 10 -13 5 0 9 -3 9 -7
-1 -5 0 -10 1 -13 6 -16 16 -133 25 -310 3 -63 7 -142 10 -175 10 -164 16
-244 19 -285 3 -25 7 -85 11 -135 4 -49 9 -106 10 -125 15 -182 18 -249 18
-405 -1 -184 -6 -307 -19 -405 -4 -30 -8 -66 -9 -80 -1 -14 -3 -25 -5 -25 -1
0 -3 -13 -5 -30 -3 -31 -13 -90 -21 -129 -11 -50 -16 -72 -19 -91 -2 -11 -6
-30 -9 -43 -11 -42 -26 -103 -29 -117 -2 -5 -6 -16 -10 -22 -5 -7 -5 -17 -2
-23 3 -5 2 -10 -4 -10 -6 0 -8 -7 -5 -15 4 -8 1 -15 -4 -15 -6 0 -10 -8 -10
-17 0 -10 -6 -37 -15 -60 -9 -22 -13 -44 -10 -47 4 -3 2 -6 -3 -6 -5 0 -10
-10 -11 -22 -1 -11 -8 -25 -15 -29 -7 -5 -9 -9 -4 -9 5 0 3 -6 -3 -14 -6 -8
-11 -18 -9 -22 1 -5 -3 -19 -10 -30 -6 -12 -8 -24 -5 -28 3 -3 1 -6 -6 -6 -7
0 -10 -4 -6 -9 3 -5 1 -12 -5 -16 -6 -4 -8 -11 -5 -16 4 -5 1 -9 -4 -9 -6 0
-11 -9 -11 -19 0 -11 -5 -23 -10 -26 -6 -4 -8 -11 -5 -16 4 -5 1 -9 -5 -9 -6
0 -8 -4 -5 -10 3 -6 1 -10 -5 -10 -6 0 -9 -4 -5 -9 3 -5 1 -12 -5 -16 -6 -4
-8 -11 -5 -16 4 -5 2 -9 -2 -9 -5 0 -15 -15 -22 -32 -8 -18 -15 -35 -16 -38
-2 -3 -6 -15 -10 -28 -4 -12 -10 -22 -14 -22 -4 0 -15 -22 -26 -50 -11 -27
-23 -50 -27 -50 -4 0 -8 -9 -8 -21 0 -11 -4 -17 -10 -14 -5 3 -10 -3 -10 -14
0 -12 -5 -21 -11 -21 -5 0 -8 -4 -5 -8 3 -5 -4 -18 -14 -30 -11 -12 -20 -28
-20 -37 0 -8 -4 -15 -10 -15 -5 0 -10 -7 -10 -15 0 -8 -4 -15 -10 -15 -5 0
-10 -7 -10 -15 0 -8 -4 -15 -10 -15 -5 0 -10 -9 -10 -19 0 -10 -7 -22 -16 -25
-8 -3 -12 -10 -9 -16 3 -5 1 -10 -4 -10 -6 0 -11 -7 -11 -15 0 -9 -7 -18 -15
-21 -8 -4 -13 -10 -10 -14 3 -5 -3 -13 -12 -19 -10 -6 -14 -11 -9 -11 5 0 -3
-11 -17 -24 -14 -13 -23 -27 -20 -30 4 -3 0 -6 -7 -6 -7 0 -11 -3 -7 -6 5 -5
-15 -33 -50 -69 -7 -7 -9 -15 -6 -19 4 -3 -2 -6 -12 -6 -10 0 -15 -3 -12 -6 4
-4 -8 -20 -26 -37 -17 -16 -23 -24 -12 -16 11 7 -8 -14 -42 -47 -35 -33 -63
-66 -63 -74 0 -7 -3 -11 -6 -7 -3 3 -28 -16 -54 -44 -26 -27 -52 -49 -59 -49
-6 0 -10 -5 -8 -12 1 -7 -3 -12 -10 -13 -6 0 -21 -11 -32 -24 -12 -13 -21 -21
-21 -18 0 4 -9 -1 -20 -10 -11 -10 -29 -26 -40 -35 -11 -10 -24 -18 -29 -18
-5 0 -11 -7 -15 -15 -3 -8 -15 -15 -26 -15 -12 0 -19 -4 -16 -8 2 -4 -4 -14
-16 -21 -16 -10 -19 -10 -13 1 3 7 0 5 -8 -4 -8 -10 -19 -18 -26 -18 -6 0 -11
-5 -11 -11 0 -5 -4 -7 -10 -4 -5 3 -10 1 -10 -5 0 -6 -5 -8 -10 -5 -6 3 -13
-1 -16 -9 -3 -9 -10 -13 -15 -10 -5 3 -9 2 -9 -3 0 -9 -48 -33 -67 -33 -8 0
-16 -7 -19 -15 -4 -8 -11 -12 -16 -9 -6 4 -13 3 -17 -2 -10 -14 -49 -34 -66
-34 -8 0 -15 -5 -15 -11 0 -5 -4 -8 -9 -4 -5 3 -12 1 -16 -5 -4 -6 -11 -8 -16
-5 -5 4 -9 1 -9 -5 0 -6 -4 -8 -10 -5 -5 3 -10 1 -10 -4 0 -6 -3 -10 -7 -9 -5
1 -24 -4 -43 -11 -32 -12 -41 -16 -75 -24 -5 -2 -21 -9 -35 -17 -14 -7 -26
-13 -27 -12 -2 1 -4 2 -5 1 -8 -2 -36 -9 -60 -14 -15 -3 -38 -9 -52 -15 -13
-5 -27 -6 -30 -3 -3 4 -6 1 -6 -6 0 -7 -8 -11 -17 -10 -10 1 -20 0 -23 -1 -7
-2 -32 -8 -60 -14 -14 -3 -38 -8 -55 -11 -89 -19 -168 -31 -245 -40 -25 -3
-61 -7 -80 -9 -154 -20 -337 -29 -565 -28 -180 0 -350 8 -364 16 -4 3 -25 7
-47 10 -37 6 -50 8 -103 20 -11 3 -28 9 -39 15 -11 6 -22 7 -26 4 -3 -3 -6 -2
-6 4 0 5 -7 10 -15 11 -8 1 -22 3 -30 4 -8 1 -15 5 -15 10 0 5 -6 8 -12 6 -7
-1 -23 4 -36 11 -13 7 -33 14 -44 16 -12 3 -25 10 -30 17 -4 7 -8 10 -8 5 0
-4 -10 -1 -23 8 -13 8 -27 12 -30 8 -4 -3 -7 -1 -7 6 0 7 -5 9 -10 6 -6 -3
-10 -1 -10 5 0 6 -4 9 -9 6 -5 -3 -14 1 -21 9 -7 8 -16 12 -21 9 -5 -3 -9 -1
-9 5 0 6 -7 7 -17 4 -11 -4 -14 -3 -9 5 5 8 2 10 -8 6 -9 -3 -16 -1 -16 6 0 6
-4 8 -10 5 -5 -3 -10 -1 -10 5 0 6 -5 8 -10 5 -6 -3 -10 -1 -10 5 0 6 -5 8
-10 5 -6 -3 -10 -1 -10 6 0 7 -3 9 -7 6 -3 -4 -12 1 -20 11 -10 11 -12 12 -8
2 4 -8 -1 -6 -9 4 -9 11 -16 16 -16 11 0 -5 -12 2 -27 16 -14 13 -23 18 -19
12 5 -9 2 -11 -8 -7 -9 3 -16 10 -16 16 0 5 -5 6 -10 3 -6 -3 -13 1 -16 9 -3
9 -10 13 -15 10 -5 -3 -9 0 -9 6 0 6 -4 9 -9 5 -5 -3 -17 3 -27 12 -10 10 -20
19 -23 19 -29 7 -50 18 -47 23 3 4 -4 13 -16 20 -16 10 -18 10 -12 0 4 -7 -8
-1 -28 14 -19 15 -40 27 -47 27 -6 0 -14 7 -17 15 -4 8 -10 12 -15 9 -5 -3 -9
-1 -9 4 0 5 -12 15 -27 22 -16 8 -36 23 -46 35 -10 11 -16 13 -12 5 4 -8 -3
-4 -14 9 -12 13 -21 19 -21 15 0 -5 -5 -1 -11 8 -5 10 -15 18 -22 18 -6 0 -20
10 -32 23 -11 13 -16 16 -11 7 5 -8 -3 -2 -18 13 -14 15 -26 25 -26 21 0 -4
-14 9 -31 27 -18 19 -26 25 -19 14 7 -11 -1 -5 -17 12 -17 18 -33 30 -37 26
-3 -3 -6 2 -6 12 0 10 -3 15 -7 12 -3 -4 -22 10 -41 31 -20 20 -29 28 -21 17
13 -20 13 -20 -8 -1 -13 10 -20 23 -16 29 3 5 2 7 -4 4 -5 -3 -27 15 -49 40
-21 25 -49 49 -62 54 -13 5 -21 13 -17 18 3 5 -3 12 -14 16 -11 3 -32 22 -47
43 -26 35 -65 78 -141 157 -18 18 -33 38 -33 44 0 6 -4 11 -10 11 -5 0 -10 7
-10 16 0 8 -4 12 -10 9 -5 -3 -10 1 -10 9 0 9 -4 16 -10 16 -5 0 -10 5 -10 11
0 7 -11 22 -26 35 -14 13 -22 24 -19 24 4 0 0 6 -7 14 -7 7 -20 24 -28 36 -8
12 -21 29 -28 36 -7 8 -10 14 -6 14 4 0 -1 7 -12 16 -10 8 -12 13 -4 9 8 -4 4
3 -9 14 -13 12 -19 21 -15 21 5 0 1 5 -9 11 -9 6 -15 14 -12 19 3 4 -2 10 -10
14 -8 3 -15 12 -15 21 0 8 -5 15 -11 15 -5 0 -7 5 -4 10 3 6 -1 13 -9 16 -9 3
-13 10 -10 15 3 5 0 9 -5 9 -6 0 -11 6 -11 13 0 7 -9 23 -19 34 -11 12 -17 24
-14 27 4 3 1 6 -5 6 -7 0 -12 7 -12 15 0 8 -5 15 -11 15 -5 0 -7 5 -4 10 3 6
1 10 -6 10 -7 0 -9 3 -6 7 4 3 -1 12 -11 20 -11 10 -12 12 -2 8 10 -4 9 -2 -2
8 -10 8 -18 18 -18 22 0 5 -8 17 -17 28 -11 13 -12 17 -4 12 9 -5 7 2 -5 18
-10 15 -22 27 -26 27 -5 0 -8 9 -8 20 0 11 -4 20 -9 20 -7 0 -18 27 -21 48 0
1 -9 11 -20 22 -12 12 -18 25 -15 30 4 6 1 10 -6 10 -7 0 -9 3 -6 7 4 3 -3 18
-15 31 -13 14 -16 22 -8 18 9 -5 8 -2 -2 7 -10 8 -15 17 -11 20 3 4 1 7 -6 7
-7 0 -9 4 -6 10 3 5 1 10 -6 10 -7 0 -10 3 -6 6 3 4 -1 13 -9 21 -8 8 -12 19
-9 24 4 5 1 9 -5 9 -6 0 -8 5 -5 10 3 6 1 10 -5 10 -6 0 -9 4 -6 9 3 5 -1 11
-9 15 -9 3 -12 12 -8 23 3 10 3 15 -2 11 -8 -7 -57 85 -58 109 0 7 -6 14 -14
17 -7 3 -13 15 -13 26 0 11 -5 20 -12 20 -6 0 -9 3 -5 6 3 3 -5 23 -18 44 -13
21 -21 41 -18 44 4 3 1 6 -6 6 -7 0 -9 4 -6 10 3 6 1 10 -5 10 -6 0 -8 4 -5
10 3 6 1 10 -6 10 -7 0 -10 3 -6 6 3 3 -5 23 -18 44 -13 21 -21 41 -18 44 4 3
1 6 -5 6 -7 0 -11 3 -10 8 1 4 -13 36 -32 72 -19 36 -33 68 -32 73 1 4 -3 7
-10 7 -6 0 -9 3 -5 6 3 3 -5 23 -18 44 -13 21 -21 41 -18 44 4 3 1 6 -6 6 -7
0 -9 5 -6 10 3 6 2 10 -3 10 -6 0 -13 7 -16 16 -3 9 -2 12 5 8 6 -3 5 3 -3 15
-7 12 -16 21 -21 21 -4 0 -5 5 -2 10 3 6 1 10 -6 10 -7 0 -10 3 -6 6 3 3 -5
24 -19 46 -14 22 -20 37 -12 32 7 -4 6 1 -4 12 -20 23 -77 141 -72 147 3 2 -2
10 -11 17 -8 7 -15 21 -15 31 0 11 -5 19 -11 19 -5 0 -7 4 -4 10 3 5 1 10 -5
10 -6 0 -9 4 -6 9 4 5 1 11 -4 13 -6 2 -12 11 -13 20 -2 9 -9 24 -17 34 -13
16 -13 17 0 10 9 -4 8 -2 -2 7 -10 8 -15 17 -11 20 3 4 1 7 -6 7 -7 0 -11 6
-8 13 2 6 -4 24 -14 38 -10 14 -16 29 -12 33 3 3 1 6 -5 6 -7 0 -11 3 -10 8 1
4 -3 17 -10 28 -6 12 -8 24 -5 28 3 3 0 6 -7 6 -7 0 -11 3 -7 6 3 4 -1 13 -9
21 -8 8 -12 19 -9 24 4 5 1 9 -6 9 -7 0 -9 3 -6 6 3 4 1 16 -5 28 -7 11 -11
24 -10 29 1 4 -3 7 -9 7 -5 0 -8 4 -4 9 3 5 1 12 -5 16 -6 4 -8 11 -5 16 4 5
1 9 -5 9 -7 0 -10 7 -6 15 3 8 1 15 -4 15 -6 0 -10 9 -10 20 0 11 -5 20 -11
20 -6 0 -9 7 -5 15 3 8 1 15 -5 15 -6 0 -7 5 -4 10 3 6 1 10 -5 10 -7 0 -10 7
-7 15 4 8 2 17 -4 20 -5 4 -7 11 -4 16 4 5 1 9 -5 9 -6 0 -9 4 -6 9 4 5 2 11
-3 13 -5 1 -11 14 -13 28 -1 14 -7 28 -11 31 -5 3 -10 15 -12 25 -2 10 -4 20
-5 22 -2 1 -4 7 -5 12 -1 6 -3 11 -5 13 -2 3 -11 40 -12 55 -1 6 -5 12 -8 12
-7 0 -14 24 -26 84 -3 11 -9 25 -15 33 -6 7 -8 13 -5 13 4 0 2 9 -4 21 -7 11
-14 33 -16 47 -3 15 -10 32 -15 38 -5 7 -9 16 -7 20 1 5 -3 19 -10 32 -7 12
-10 22 -8 22 3 0 -1 18 -9 39 -7 22 -11 42 -8 45 4 3 0 6 -7 6 -7 0 -10 3 -7
7 4 3 2 12 -4 20 -6 7 -9 13 -5 13 3 0 0 16 -8 35 -8 19 -13 35 -10 35 2 0 -3
14 -11 31 -9 17 -14 33 -11 37 3 3 1 11 -5 19 -6 7 -8 13 -4 13 4 0 2 7 -5 15
-6 8 -9 19 -5 25 3 5 1 10 -5 10 -7 0 -10 7 -6 15 3 8 1 15 -4 15 -5 0 -7 6
-4 14 3 8 0 17 -5 21 -6 3 -9 10 -6 15 3 5 1 11 -5 15 -5 3 -10 19 -10 35 0
16 -4 31 -10 35 -5 3 -7 12 -3 20 3 8 1 15 -4 15 -5 0 -10 6 -11 13 -2 23 -8
46 -14 53 -4 3 -4 12 -1 20 3 8 1 14 -4 14 -5 0 -10 12 -11 26 -1 15 -6 32
-12 39 -5 6 -7 15 -4 18 3 3 2 12 -2 19 -9 13 -13 29 -16 61 -1 9 -6 17 -11
17 -5 0 -7 7 -4 15 4 8 2 17 -4 21 -6 3 -8 12 -5 20 3 8 0 14 -6 14 -6 0 -9 3
-6 6 4 3 2 20 -4 37 -5 18 -10 37 -11 42 -2 6 -6 16 -10 23 -5 6 -6 12 -3 12
2 0 0 15 -6 33 -5 17 -11 41 -13 52 -2 11 -4 21 -5 23 -2 1 -4 7 -5 12 -1 6
-3 11 -5 13 -2 3 -10 33 -24 102 -2 11 -9 32 -15 48 -6 15 -8 27 -5 27 2 0 0
8 -5 18 -10 19 -23 77 -22 105 0 9 -4 17 -8 17 -4 0 -8 6 -9 13 0 6 -3 23 -6
37 -4 14 -9 38 -12 54 -2 16 -8 34 -11 39 -3 5 -7 21 -9 36 -1 14 -7 41 -13
59 -5 17 -7 32 -4 32 3 0 1 6 -4 13 -6 6 -9 20 -8 30 2 9 0 17 -4 17 -4 0 -8
10 -9 23 -5 36 -9 62 -11 62 -3 0 -12 35 -16 65 -1 14 -4 25 -5 25 -1 0 -4 9
-6 20 -5 21 -7 31 -22 103 -5 23 -7 42 -4 42 2 0 -1 7 -8 15 -7 8 -10 15 -7
15 3 0 1 17 -5 38 -5 20 -11 46 -13 57 -2 11 -6 31 -10 45 -3 14 -8 39 -10 55
-3 17 -8 37 -10 45 -5 17 -15 65 -20 95 -3 20 -9 49 -20 95 -3 14 -7 39 -10
55 -5 31 -11 62 -21 105 -3 14 -7 36 -9 50 -2 14 -7 39 -10 55 -4 17 -8 44
-10 60 -1 17 -4 31 -5 33 -4 3 -5 12 -15 72 -4 30 -10 64 -12 75 -2 11 -5 32
-6 48 0 15 -4 27 -7 27 -3 0 -7 15 -9 33 -5 52 -9 82 -11 82 -1 0 -3 14 -6 30
-10 71 -15 101 -19 125 -2 14 -6 39 -9 55 -2 17 -7 50 -11 75 -4 25 -9 59 -10
75 -2 17 -4 30 -5 30 -2 0 -6 27 -14 90 -2 22 -7 56 -11 76 -3 20 -8 51 -10
70 -2 19 -6 52 -9 74 -4 22 -9 60 -11 85 -3 25 -8 59 -10 75 -3 17 -7 53 -10
80 -3 28 -7 68 -10 90 -3 22 -7 63 -10 90 -3 28 -7 73 -10 100 -12 109 -14
132 -19 180 -8 67 -17 175 -22 255 -2 36 -7 112 -11 170 -16 239 -8 995 13
1190 2 19 6 64 9 100 9 93 12 125 14 125 1 0 4 20 6 45 3 25 7 59 10 75 2 17
7 50 11 75 10 79 11 85 14 85 1 0 3 9 4 20 8 58 17 113 22 135 3 14 7 34 9 45
2 11 6 31 9 45 3 14 8 35 11 48 3 12 7 32 11 45 3 12 7 31 9 42 3 11 7 31 10
45 4 14 8 35 11 47 2 12 8 33 13 45 5 13 9 26 10 31 0 4 1 8 2 10 0 1 2 9 4
17 2 8 7 26 10 40 3 14 8 32 10 40 2 8 4 16 5 18 2 1 4 7 5 12 1 6 3 11 5 13
2 3 11 40 12 55 1 6 6 12 11 12 6 0 8 3 4 6 -3 3 4 31 15 62 11 32 20 63 21
70 0 6 5 12 10 12 6 0 8 3 4 6 -3 4 0 21 8 39 7 19 11 36 7 39 -3 3 0 6 6 6 6
0 9 7 6 15 -4 8 -1 15 5 15 6 0 10 3 9 8 -2 12 14 66 25 80 5 6 6 12 2 12 -4
0 -2 7 5 15 7 8 9 15 5 15 -4 0 -2 7 5 15 7 8 10 15 6 15 -4 0 0 13 8 29 9 16
12 31 9 35 -4 3 -1 6 5 6 6 0 9 6 6 14 -3 8 0 17 5 21 6 3 9 11 6 16 -4 5 -1
9 4 9 6 0 11 11 11 25 0 14 4 25 10 25 5 0 9 3 9 8 -1 4 0 9 1 12 1 5 4 16 13
53 2 6 9 22 15 35 7 12 10 22 6 22 -3 0 -1 6 5 13 6 8 8 17 4 20 -3 4 -2 7 4
7 5 0 10 7 11 15 1 8 3 22 4 30 1 8 5 15 9 15 5 0 6 7 3 15 -4 8 -1 15 5 15 6
0 11 8 11 18 0 10 3 22 7 26 4 3 8 16 10 28 2 12 8 27 13 33 5 7 7 15 3 18 -3
4 -1 7 6 7 7 0 9 4 6 10 -3 5 1 23 10 40 8 16 13 30 10 30 -3 0 1 10 10 23 8
13 12 27 8 30 -3 4 -1 7 6 7 7 0 10 4 7 8 -3 5 1 20 9 35 8 15 11 27 8 27 -3
0 0 6 6 13 6 8 8 17 4 20 -3 4 -2 7 4 7 5 0 10 6 11 13 2 22 8 42 20 65 7 12
10 22 6 22 -3 0 -1 6 5 13 6 8 8 17 4 20 -3 4 0 7 7 7 7 0 11 3 7 6 -3 4 0 19
8 34 8 15 11 30 8 34 -4 3 -1 6 6 6 7 0 9 5 6 10 -3 6 -1 10 6 10 7 0 9 3 6 7
-4 3 -2 12 4 20 6 7 9 13 5 13 -4 0 0 13 9 30 8 16 15 32 15 35 -1 17 14 55
22 55 5 0 8 6 7 13 -1 6 3 25 9 40 7 16 12 33 12 38 0 5 5 9 11 9 6 0 9 7 5
15 -3 8 -1 15 5 15 6 0 7 5 4 10 -3 6 -1 10 6 10 7 0 10 3 6 6 -3 4 2 23 13
44 11 21 16 40 13 44 -4 3 -1 6 6 6 7 0 9 5 6 10 -3 6 -1 10 5 10 6 0 8 5 5
10 -3 6 -1 10 5 10 6 0 8 5 5 10 -3 6 -1 10 5 10 6 0 8 5 5 10 -3 6 -1 10 5
10 6 0 9 4 5 9 -3 5 -1 12 5 16 5 3 10 13 10 22 0 9 8 22 18 30 9 8 11 12 5 8
-8 -4 -6 6 5 27 9 18 20 35 25 36 4 2 5 8 1 13 -3 5 0 9 6 9 6 0 8 5 5 10 -3
6 1 13 9 16 9 3 13 10 10 15 -3 5 0 9 6 9 6 0 9 4 5 9 -3 5 1 16 9 24 8 8 12
17 9 21 -4 3 0 6 7 6 7 0 10 3 7 6 -4 4 2 19 13 34 11 16 20 33 20 39 0 6 5
11 10 11 6 0 10 9 10 19 0 10 7 22 16 25 9 4 14 9 11 13 -4 3 9 28 29 56 19
27 30 46 22 42 -7 -3 -5 0 4 8 10 8 15 17 11 20 -3 4 -1 7 5 7 7 0 12 7 12 15
0 8 3 15 8 15 4 0 16 17 27 38 11 20 22 39 25 42 3 3 11 17 19 32 8 15 18 25
22 22 5 -3 6 3 2 12 -4 12 -3 15 5 10 7 -4 13 -2 13 3 1 6 2 14 3 19 0 4 11
18 24 32 12 13 22 29 22 36 0 6 7 14 15 18 8 3 14 9 13 13 -3 8 1 14 47 66 14
15 25 35 25 43 0 8 7 17 15 20 8 4 15 10 15 16 0 5 11 19 25 32 13 13 22 26
18 29 -3 4 -1 7 5 7 7 0 12 5 12 12 0 7 17 28 38 46 20 19 28 29 17 21 -20
-14 -20 -14 0 11 20 26 45 54 90 102 14 15 25 30 25 35 0 4 17 22 38 41 20 19
30 31 22 26 -8 -4 5 12 30 36 25 24 38 39 30 35 -13 -8 -13 -6 -1 8 7 9 17 14
22 11 5 -3 9 -1 9 5 0 12 32 50 105 124 33 33 53 56 45 52 -13 -8 -13 -6 -1 8
7 9 17 14 22 11 5 -3 8 0 7 8 -2 7 3 12 10 10 6 -1 12 2 12 8 0 13 77 90 91
90 5 0 8 3 6 8 -2 4 53 63 122 132 68 69 121 119 116 111 -5 -10 -4 -12 3 -7
7 4 12 13 12 20 0 8 8 20 17 27 15 12 16 12 8 -1 -5 -8 11 4 36 28 80 77 92
87 85 72 -4 -8 2 -3 14 13 12 15 28 27 36 27 8 0 14 5 14 11 0 5 5 7 10 4 6
-3 13 1 16 9 3 9 10 13 15 10 5 -3 9 0 9 6 0 6 4 9 9 6 4 -3 16 3 25 13 10 11
28 22 42 25 13 4 24 11 24 17 0 6 5 7 10 4 6 -3 10 -2 10 3 0 9 37 25 53 23 4
-1 7 4 7 10 0 5 5 7 10 4 6 -3 10 -1 10 5 0 6 5 8 10 5 6 -3 10 -1 10 4 0 6 3
11 8 10 15 -2 52 14 52 23 0 6 6 8 14 5 8 -3 20 1 26 8 7 8 16 12 21 9 5 -3 9
0 9 5 0 6 3 10 8 9 4 0 14 1 22 4 8 4 24 9 35 14 11 4 23 6 28 6 4 -1 7 2 7 6
0 5 7 9 15 10 8 1 22 3 30 4 8 1 15 6 15 11 0 6 3 8 6 4 4 -3 19 0 35 9 16 8
30 14 31 14 2 -1 10 1 18 4 106 38 220 73 224 68 3 -3 6 0 6 6 0 6 7 9 15 6 8
-4 15 -1 15 6 0 7 7 10 15 7 8 -4 17 -2 20 4 4 5 10 7 15 4 5 -3 11 -1 15 4 3
6 12 8 20 4 8 -3 15 -1 15 5 0 8 32 19 72 26 3 1 9 4 13 8 4 4 13 4 21 1 8 -3
14 0 14 7 0 7 7 10 15 6 8 -3 15 -1 15 4 0 6 3 9 8 9 4 -1 9 0 12 1 13 4 47
12 63 13 9 1 17 4 17 7 0 4 6 7 13 8 42 5 72 10 72 12 0 7 90 13 210 14 130 1
182 -3 260 -20 17 -3 36 -7 43 -7 6 0 12 -4 12 -9 0 -4 3 -7 8 -6 14 4 112
-26 112 -34 0 -5 4 -6 10 -3 6 3 10 1 10 -6 0 -7 3 -10 6 -6 4 3 25 -4 48 -15
22 -12 44 -21 49 -20 4 1 7 -2 7 -8 0 -5 7 -10 15 -10 8 0 15 -5 15 -12 0 -6
3 -8 7 -5 3 4 12 -1 20 -11 9 -10 12 -11 7 -2 -8 15 33 -14 48 -35 4 -5 8 -6
8 -1 0 5 9 -1 20 -14 11 -13 20 -19 20 -15 0 4 8 -2 19 -13 10 -12 21 -19 25
-15 3 3 6 -1 6 -11 0 -9 3 -15 8 -13 4 2 48 -37 97 -86 50 -50 83 -87 75 -83
-8 5 1 -6 20 -24 19 -18 28 -29 20 -25 -8 4 -2 -4 14 -19 16 -14 25 -26 21
-26 -5 0 0 -7 11 -16 10 -8 12 -13 4 -9 -8 4 -4 -3 10 -15 14 -12 18 -19 10
-15 -8 4 -6 -1 4 -9 11 -9 16 -16 10 -16 -5 0 -1 -5 9 -11 9 -6 15 -14 12 -20
-4 -5 1 -12 9 -15 9 -3 13 -10 10 -15 -3 -5 0 -9 6 -9 6 0 8 -4 5 -10 -3 -5
-1 -10 5 -10 6 0 8 -4 5 -10 -3 -5 -2 -10 4 -10 6 0 13 -11 17 -25 3 -14 10
-25 16 -25 5 0 6 -4 3 -10 -3 -5 -1 -10 5 -10 6 0 8 -4 5 -10 -3 -5 -1 -10 5
-10 6 0 9 -4 6 -9 -3 -5 1 -14 9 -21 8 -7 12 -16 9 -21 -3 -5 0 -9 7 -9 7 0 9
-3 6 -7 -4 -3 1 -15 10 -26 13 -15 14 -19 3 -13 -9 5 -8 2 2 -7 10 -8 15 -17
11 -20 -3 -4 -1 -7 6 -7 8 0 11 -7 7 -15 -3 -8 -1 -15 5 -15 6 0 7 -4 4 -10
-3 -5 -1 -10 5 -10 6 0 8 -4 5 -10 -3 -5 -1 -10 5 -10 7 0 10 -7 6 -15 -3 -8
-1 -15 4 -15 6 0 10 -4 10 -9 0 -5 5 -22 12 -38 6 -15 11 -31 10 -35 -1 -5 3
-8 9 -8 6 0 9 -6 6 -13 -3 -7 1 -21 9 -32 8 -10 14 -27 14 -37 0 -10 5 -18 11
-18 5 0 8 -4 5 -8 -2 -4 1 -21 9 -37 13 -31 26 -66 27 -75 0 -3 5 -14 11 -25
11 -20 17 -40 19 -62 1 -7 6 -13 11 -13 5 0 7 -6 4 -13 -3 -7 1 -21 9 -31 7
-11 11 -23 8 -27 -3 -5 -1 -9 4 -9 5 0 9 -7 10 -15 1 -8 3 -22 4 -30 1 -8 6
-15 11 -15 6 0 8 -3 5 -6 -4 -3 0 -21 8 -40 8 -19 11 -34 7 -34 -5 0 -2 -4 5
-9 7 -4 14 -18 15 -29 1 -12 5 -22 10 -22 5 0 7 -7 4 -15 -4 -8 -2 -17 4 -20
5 -4 7 -11 4 -16 -4 -5 -1 -9 5 -9 7 0 10 -7 6 -15 -3 -8 -2 -15 3 -15 4 0 8
-6 9 -12 2 -23 7 -43 15 -55 5 -7 10 -22 13 -33 2 -11 6 -30 10 -42 3 -13 7
-32 9 -43 3 -11 7 -31 11 -45 9 -43 18 -94 18 -117 1 -13 3 -23 6 -23 3 0 7
-15 8 -33 1 -18 5 -44 8 -57 3 -14 7 -38 10 -55 3 -16 7 -41 9 -55 3 -14 7
-41 9 -60 3 -19 8 -46 11 -60 4 -14 8 -36 10 -50 2 -14 4 -25 5 -25 1 0 3 -7
5 -15 2 -8 6 -28 10 -45 3 -16 7 -34 8 -40 2 -5 6 -16 10 -22 5 -7 6 -13 2
-13 -3 0 1 -13 10 -30 9 -16 13 -30 9 -30 -4 0 -1 -6 5 -13 6 -8 8 -17 4 -20
-3 -4 0 -7 7 -7 7 0 10 -3 7 -6 -4 -4 2 -19 13 -34 11 -15 16 -31 12 -35 -4
-5 -2 -5 4 -2 6 3 17 -5 24 -18 7 -14 19 -25 26 -25 7 0 16 -5 20 -12 5 -7 3
-8 -6 -3 -9 6 -11 4 -6 -4 5 -7 11 -10 14 -7 3 4 15 0 27 -8 52 -34 190 -38
365 -10 41 6 93 15 120 20 14 2 39 6 55 8 17 3 44 7 60 11 17 3 46 8 65 11 50
7 80 12 125 19 22 4 51 8 65 11 14 2 36 6 50 8 27 5 101 15 140 20 36 5 102
16 130 21 14 3 43 7 65 10 41 5 106 13 160 21 17 3 46 7 65 9 41 6 85 13 120
19 45 7 124 18 155 22 17 2 46 6 65 8 88 14 127 19 157 20 18 0 33 4 33 8 0 4
8 6 18 6 9 0 37 2 62 5 25 4 63 9 85 11 22 3 63 8 90 11 28 4 70 8 95 11 25 2
68 7 95 10 28 3 73 7 100 9 28 2 73 6 100 9 28 3 79 8 115 11 36 4 81 8 100
10 19 2 65 6 102 10 37 3 77 8 90 11 22 4 92 13 153 19 17 2 30 4 30 5 0 1 14
3 30 5 17 2 44 6 60 10 17 4 44 8 60 10 17 2 30 4 30 5 0 3 6 4 73 14 18 3 36
7 41 10 4 3 23 8 42 11 19 4 39 8 44 9 6 1 16 5 23 9 6 5 12 6 12 3 0 -3 12
-1 28 5 15 6 35 13 45 15 9 2 27 7 40 10 12 3 28 6 35 6 6 1 12 6 12 11 0 6 3
7 7 4 3 -4 12 -2 20 4 7 6 13 8 13 5 0 -4 10 -1 23 6 12 7 26 11 30 10 4 -1
15 4 23 13 9 8 22 15 30 15 9 0 22 6 29 13 65 59 93 87 87 87 -4 0 0 6 9 13 9
7 20 28 25 47 9 39 12 190 4 190 -3 0 -7 15 -9 33 -4 40 -9 72 -11 72 -1 0 -3
7 -5 15 -2 8 -6 27 -9 43 -3 15 -9 39 -12 55 -3 15 -7 34 -9 42 -2 8 -4 15 -5
15 -1 0 -3 11 -6 25 -3 21 -8 40 -19 83 -2 4 -3 8 -5 10 -2 3 -10 45 -12 70
-1 9 -5 17 -8 17 -4 0 -7 6 -8 13 -1 14 -10 51 -12 55 -3 2 -3 2 -14 52 -5 19
-12 40 -18 46 -5 7 -8 16 -7 20 3 13 -12 67 -23 81 -5 7 -7 17 -3 23 3 5 1 10
-6 10 -7 0 -10 3 -6 6 3 4 0 22 -8 40 -8 19 -12 34 -9 34 2 0 -2 13 -10 29 -9
16 -12 31 -9 35 4 3 0 6 -7 6 -7 0 -10 3 -7 7 4 3 1 13 -6 21 -10 13 -9 14 3
7 9 -5 7 1 -5 14 -11 13 -19 25 -17 27 1 2 1 6 1 9 -1 3 -3 10 -4 15 -1 6 -4
12 -5 15 -1 3 -3 8 -5 13 -2 7 -6 18 -28 77 -7 17 -11 33 -9 38 1 4 -2 7 -8 7
-5 0 -7 7 -4 15 4 8 1 15 -6 15 -6 0 -9 4 -5 9 3 5 1 12 -4 15 -5 3 -12 22
-15 41 -4 19 -12 35 -18 35 -6 0 -8 3 -5 7 4 3 2 12 -4 20 -6 7 -9 13 -5 13 3
0 -3 16 -14 36 -11 19 -16 33 -11 29 6 -3 -1 13 -14 37 -13 23 -22 45 -19 50
3 4 0 8 -6 8 -6 0 -8 5 -5 10 3 6 1 10 -5 10 -6 0 -9 4 -5 9 3 5 1 12 -5 16
-6 4 -8 11 -5 16 4 5 1 9 -5 9 -6 0 -8 5 -5 10 3 6 2 10 -4 10 -6 0 -8 7 -5
15 4 8 1 15 -6 15 -6 0 -8 5 -5 10 3 6 1 10 -5 10 -6 0 -8 5 -5 10 3 6 1 10
-6 10 -7 0 -9 3 -6 6 3 4 1 16 -5 28 -7 11 -13 23 -13 26 0 3 -6 15 -13 26 -6
12 -8 24 -5 28 3 3 1 6 -6 6 -7 0 -9 5 -6 10 3 6 1 10 -5 10 -6 0 -8 5 -5 10
3 6 1 10 -5 10 -6 0 -8 5 -5 10 3 6 1 10 -5 10 -7 0 -10 6 -7 14 3 7 0 19 -6
25 -7 7 -12 15 -13 19 -1 14 -29 67 -39 74 -5 4 -6 8 -1 8 5 0 3 7 -4 15 -7 8
-9 15 -4 15 5 0 5 4 -1 8 -15 10 -35 49 -35 67 0 8 -4 15 -10 15 -5 0 -10 9
-10 20 0 11 -5 20 -11 20 -5 0 -7 5 -4 10 3 6 1 10 -5 10 -7 0 -10 6 -7 13 2
6 -6 27 -19 46 -13 19 -21 38 -18 43 3 4 0 8 -5 8 -6 0 -10 3 -9 8 1 4 -10 31
-25 59 -15 29 -27 56 -26 59 0 4 -4 10 -11 14 -6 4 -12 17 -13 28 -1 12 -5 22
-9 22 -4 0 -17 21 -29 48 -12 26 -29 56 -38 66 -13 16 -13 18 -1 12 9 -5 8 -2
-2 7 -10 8 -15 17 -11 20 3 4 1 7 -6 7 -7 0 -9 5 -6 10 3 6 1 10 -5 10 -6 0
-8 5 -5 10 3 6 1 10 -5 10 -6 0 -8 5 -5 10 3 6 1 10 -5 10 -6 0 -8 5 -5 10 3
6 1 10 -5 10 -6 0 -8 5 -5 10 3 6 1 10 -5 10 -6 0 -9 4 -6 9 3 5 -1 12 -10 15
-8 3 -12 10 -9 16 3 5 1 10 -5 10 -6 0 -9 4 -6 9 3 5 -1 14 -9 21 -8 7 -13 16
-10 20 3 4 -2 13 -10 20 -8 7 -15 19 -15 26 0 8 -5 14 -11 14 -5 0 -7 5 -4 10
3 6 1 10 -5 10 -6 0 -8 5 -5 10 3 6 2 10 -4 10 -5 0 -12 9 -16 19 -3 11 -17
36 -31 56 -13 20 -19 33 -12 30 7 -4 5 0 -4 8 -10 8 -15 17 -11 20 3 4 1 7 -5
7 -7 0 -12 7 -12 15 0 8 -5 15 -12 15 -6 0 -8 3 -5 7 4 3 -3 18 -15 31 -13 14
-16 22 -8 18 8 -4 6 0 -4 8 -11 9 -17 16 -13 16 5 0 3 6 -3 13 -26 30 -59 88
-48 82 7 -4 4 1 -6 9 -11 9 -16 16 -10 16 5 0 1 5 -9 11 -9 6 -15 14 -12 20 4
5 1 9 -4 9 -6 0 -11 7 -11 15 0 8 -5 15 -11 15 -5 0 -7 5 -4 10 3 6 2 10 -3
10 -5 0 -17 18 -28 40 -10 22 -22 40 -25 40 -4 0 -12 14 -19 30 -7 17 -16 30
-21 30 -5 0 -9 6 -9 13 0 8 -9 22 -20 32 -11 10 -20 24 -20 32 0 7 -5 13 -12
13 -6 0 -8 3 -5 7 4 3 -1 12 -11 20 -11 10 -12 12 -2 8 8 -4 5 2 -7 13 -12 11
-19 22 -16 26 3 3 -2 8 -11 12 -9 3 -14 10 -11 14 3 4 -2 11 -11 14 -8 3 -13
10 -9 15 3 6 -3 14 -12 20 -10 6 -14 11 -10 11 5 0 2 7 -5 15 -31 34 -38 45
-31 45 4 0 4 4 -2 8 -21 15 -50 55 -35 48 8 -4 5 1 -7 10 -13 9 -23 21 -23 26
0 9 -12 25 -45 60 -12 13 -14 18 -5 14 8 -4 6 1 -5 11 -12 10 -24 26 -28 36
-3 9 -11 17 -17 17 -6 0 -9 4 -5 9 3 6 -3 14 -12 20 -10 6 -14 11 -9 11 6 0 1
8 -10 19 -10 10 -26 29 -34 41 -8 13 -22 31 -32 41 -9 9 -14 20 -11 23 4 3 1
6 -6 6 -7 0 -9 5 -6 10 3 6 -2 10 -11 10 -10 0 -15 3 -11 6 5 5 -7 21 -53 69
-11 12 -20 28 -20 37 0 9 -5 20 -12 24 -7 5 -9 2 -4 -7 4 -8 0 -5 -8 5 -9 11
-16 25 -16 32 0 7 -5 16 -12 20 -7 5 -8 3 -3 -6 5 -9 4 -11 -3 -6 -7 4 -12 13
-12 19 0 7 -9 18 -20 25 -11 7 -20 18 -20 26 0 7 -10 21 -22 30 -13 9 -16 14
-8 10 8 -4 -2 10 -23 32 -64 65 -83 87 -67 79 8 -5 -4 10 -27 32 -24 22 -43
44 -43 49 0 5 -14 20 -30 33 -17 13 -30 28 -30 34 0 9 -14 25 -115 129 -22 23
-34 38 -26 33 10 -5 12 -4 7 3 -4 7 -14 12 -22 12 -8 0 -13 3 -12 8 2 4 -25
35 -58 69 -34 34 -59 64 -56 68 3 3 -2 5 -11 5 -10 0 -17 4 -17 9 0 5 -71 80
-157 167 -87 87 -149 147 -138 134 18 -23 -78 67 -218 205 -33 33 -55 51 -47
40 7 -11 -3 -3 -23 18 -20 20 -41 37 -47 37 -6 0 -8 5 -5 10 3 6 2 10 -2 10
-12 0 -61 39 -109 88 -23 23 -47 42 -52 42 -5 0 -13 7 -16 16 -4 9 -9 14 -12
11 -3 -3 -16 5 -29 18 -12 14 -25 22 -28 18 -4 -3 -7 1 -7 11 0 9 -4 15 -9 12
-5 -3 -12 1 -15 10 -4 9 -9 14 -12 11 -3 -3 -17 6 -30 20 -13 14 -24 22 -24
18 0 -4 -8 2 -19 13 -10 12 -23 22 -29 22 -6 0 -16 9 -22 20 -6 11 -14 19 -19
17 -5 -1 -18 9 -30 23 -13 14 -20 18 -16 10 4 -10 2 -9 -8 3 -8 9 -19 17 -25
17 -6 0 -20 12 -32 28 -12 15 -19 20 -15 12 4 -8 -1 -6 -10 5 -9 11 -21 19
-26 17 -5 -1 -12 5 -15 13 -4 8 -13 15 -21 15 -8 0 -11 5 -8 10 3 6 -3 10 -15
10 -12 0 -18 5 -15 10 3 6 -3 10 -15 10 -12 0 -18 5 -15 10 3 6 -1 10 -9 10
-9 0 -16 4 -16 10 0 5 -4 9 -9 7 -5 -1 -17 7 -26 18 -9 11 -13 13 -9 5 8 -16
-28 11 -54 40 -12 13 -13 13 -7 0 4 -8 -3 -4 -15 10 -12 14 -18 18 -14 10 8
-16 3 -13 -49 30 -9 8 -19 13 -21 10 -2 -3 -14 6 -26 20 -12 14 -18 19 -14 11
8 -15 -53 25 -74 49 -12 13 -12 13 -6 0 5 -8 -4 -5 -20 8 -16 12 -35 22 -42
22 -7 0 -17 6 -21 13 -4 6 -17 19 -27 27 -16 12 -18 12 -11 1 5 -8 -7 -3 -27
12 -19 15 -38 24 -41 20 -4 -3 -7 -1 -7 6 0 7 -5 9 -10 6 -6 -3 -13 1 -16 9
-3 9 -10 13 -15 10 -5 -3 -9 0 -9 6 0 6 -4 8 -10 5 -5 -3 -10 -1 -10 4 0 6 -9
11 -21 11 -11 0 -17 4 -14 10 3 6 -1 7 -9 4 -9 -3 -16 -1 -16 6 0 6 -4 8 -10
5 -5 -3 -10 -1 -10 5 0 6 -4 8 -10 5 -5 -3 -10 -1 -10 5 0 6 -4 9 -9 6 -5 -3
-12 1 -15 10 -3 8 -10 13 -15 9 -5 -3 -12 -1 -16 5 -3 5 -13 10 -21 10 -9 0
-22 7 -31 15 -8 8 -19 13 -24 10 -5 -4 -9 -1 -9 5 0 6 -4 8 -10 5 -5 -3 -10
-1 -10 5 0 6 -4 9 -9 5 -5 -3 -15 0 -23 7 -7 7 -20 14 -28 16 -8 2 -18 8 -21
14 -4 6 -11 8 -17 4 -5 -3 -15 1 -22 9 -7 8 -16 12 -21 9 -5 -3 -9 -1 -9 5 0
6 -7 8 -15 5 -8 -4 -15 -1 -15 6 0 6 -4 8 -10 5 -5 -3 -10 -1 -10 5 0 6 -4 8
-10 5 -5 -3 -10 -1 -10 6 0 7 -3 10 -6 6 -4 -3 -19 0 -34 8 -15 8 -30 11 -34
8 -3 -4 -6 -1 -6 6 0 7 -4 9 -10 6 -5 -3 -10 -2 -10 4 0 6 -7 8 -15 5 -8 -4
-15 -1 -15 7 0 7 -3 9 -7 6 -3 -4 -12 -2 -20 4 -7 6 -13 9 -13 5 0 -4 -13 0
-29 8 -16 9 -31 12 -35 9 -3 -4 -6 -1 -6 4 0 6 -18 14 -40 18 -22 4 -40 11
-40 16 0 4 -7 6 -15 3 -8 -4 -15 -1 -15 6 0 6 -4 8 -10 5 -5 -3 -10 -3 -10 2
0 13 17 35 26 34 5 -1 9 3 9 8 0 5 11 19 25 31 14 12 18 18 10 14 -8 -4 14 21
50 56 36 35 66 63 68 62 5 -4 38 34 35 41 -2 4 2 7 10 7 8 0 22 10 30 23 9 12
30 38 49 58 18 19 42 48 53 63 11 16 30 39 43 52 13 13 20 24 17 24 -3 0 3 10
14 22 11 11 18 25 15 30 -3 4 -1 8 3 8 10 0 49 62 45 73 -1 4 3 7 8 7 10 0 35
48 32 63 -1 4 3 7 8 7 6 0 10 5 10 11 0 5 11 34 24 62 14 29 26 59 28 67 2 8
6 17 10 20 4 3 9 15 11 25 2 11 9 33 16 49 6 16 13 36 14 45 1 9 5 21 8 26 4
6 10 24 14 40 12 45 12 45 15 48 1 1 3 10 6 20 7 29 11 41 17 57 4 8 8 24 10
35 2 11 7 28 11 37 4 9 9 25 11 35 2 10 4 18 5 18 1 0 4 8 14 50 2 11 9 32 15
48 6 15 8 27 6 27 -2 0 0 12 6 28 12 29 20 58 23 82 1 9 5 21 10 28 4 6 4 17
1 22 -3 6 -2 10 3 10 5 0 9 6 9 13 1 19 10 57 26 109 8 26 13 49 10 52 -3 2 0
13 6 23 5 11 12 43 15 71 3 29 7 56 10 61 3 5 8 36 11 70 3 34 8 89 11 124 10
95 4 422 -6 422 -1 0 -4 14 -5 30 -7 64 -17 133 -29 185 -3 14 -8 34 -10 45
-2 11 -9 40 -15 65 -7 25 -14 56 -17 70 -3 13 -9 29 -15 36 -5 6 -6 14 -3 17
3 3 2 12 -2 19 -5 7 -10 22 -11 33 -2 11 -8 24 -13 29 -4 4 -6 15 -3 22 3 8
-1 14 -8 14 -7 0 -9 3 -6 7 4 3 0 17 -8 30 -9 13 -13 23 -10 23 2 0 -6 24 -19
54 -13 30 -22 57 -18 60 3 3 0 6 -7 6 -7 0 -10 4 -6 9 3 5 -2 17 -11 25 -8 9
-13 16 -10 16 4 0 -4 19 -16 43 -12 23 -21 45 -20 50 1 4 -3 7 -9 7 -5 0 -8 4
-5 9 3 5 -3 19 -13 32 -10 13 -19 29 -20 34 0 6 -7 17 -15 27 -8 9 -12 19 -9
22 4 3 2 6 -3 6 -6 0 -16 16 -24 35 -7 19 -16 32 -20 30 -3 -2 -12 5 -19 17
-10 16 -10 19 1 13 7 -3 2 3 -11 14 -13 12 -20 21 -17 21 4 0 -5 11 -20 25
-15 14 -23 25 -19 25 4 0 -4 11 -19 25 -15 14 -24 25 -21 25 4 0 -11 15 -34
34 -22 18 -37 36 -34 40 4 3 2 6 -4 6 -5 0 -19 8 -31 18 -54 46 -63 52 -71 52
-5 0 -11 7 -15 15 -3 8 -11 15 -19 15 -7 0 -19 6 -25 13 -7 6 -16 12 -20 12
-4 1 -26 11 -49 23 -23 12 -49 22 -58 22 -8 0 -15 5 -15 10 0 6 -3 9 -7 9 -5
-1 -10 0 -13 1 -3 1 -12 3 -20 5 -8 2 -26 7 -40 10 -14 3 -32 8 -40 10 -8 2
-15 4 -15 5 0 4 -42 11 -72 12 -18 1 -33 5 -33 8 0 6 -317 10 -322 4z m-1277
-25041 c13 -16 12 -17 -3 -4 -17 13 -22 21 -14 21 2 0 10 -8 17 -17z"/>
<path d="M17930 33846 c0 -2 8 -10 18 -17 15 -13 16 -12 3 4 -13 16 -21 21
-21 13z"/>
<path d="M25115 28718 c-33 -4 -67 -11 -75 -14 -17 -8 -27 -10 -52 -12 -9 -1
-24 -9 -32 -18 -9 -8 -16 -12 -16 -9 0 7 -59 -27 -95 -55 -64 -48 -236 -237
-243 -267 -2 -7 -7 -13 -11 -13 -10 0 -84 -110 -74 -110 5 0 3 -4 -4 -8 -15
-9 -135 -242 -125 -242 4 0 2 -4 -4 -8 -6 -4 -32 -52 -58 -107 -25 -55 -51
-108 -57 -118 -5 -10 -7 -23 -3 -30 4 -7 3 -8 -1 -4 -10 9 -128 -280 -120
-293 3 -5 1 -10 -5 -12 -6 -2 -12 -12 -14 -23 -2 -11 -11 -40 -20 -64 -8 -25
-13 -48 -10 -52 2 -4 1 -9 -4 -11 -11 -4 -62 -169 -56 -180 3 -4 0 -8 -5 -8
-6 0 -11 -6 -11 -14 0 -7 -9 -41 -20 -75 -11 -34 -21 -72 -23 -84 -2 -12 -7
-29 -10 -37 -7 -17 -66 -242 -74 -280 -3 -14 -11 -45 -18 -70 -7 -25 -13 -52
-13 -60 0 -8 -10 -51 -21 -96 -12 -44 -23 -94 -25 -110 -2 -16 -6 -36 -9 -44
-5 -14 -33 -156 -42 -210 -2 -14 -7 -36 -10 -50 -3 -14 -8 -45 -11 -70 -3 -25
-8 -47 -9 -50 -2 -3 -6 -26 -10 -50 -3 -25 -10 -67 -15 -95 -15 -81 -44 -278
-55 -372 -2 -17 -7 -51 -10 -75 -4 -24 -8 -61 -11 -83 -2 -22 -5 -49 -8 -60
-2 -12 -7 -52 -11 -90 -13 -136 -14 -150 -19 -185 -3 -19 -8 -66 -11 -105 -3
-38 -8 -90 -10 -115 -8 -82 -22 -264 -30 -370 -2 -36 -7 -101 -10 -145 -3 -44
-8 -118 -10 -165 -2 -47 -7 -132 -10 -190 -39 -743 -39 -1631 0 -2320 2 -47 7
-125 10 -175 2 -49 7 -124 9 -165 4 -71 13 -186 21 -277 2 -24 7 -78 10 -120
3 -43 8 -95 11 -116 2 -20 6 -65 9 -100 10 -117 25 -272 41 -402 2 -16 6 -55
9 -85 3 -30 7 -68 10 -85 5 -29 6 -44 20 -170 3 -33 8 -71 10 -85 3 -14 7 -41
10 -60 2 -19 9 -69 14 -110 6 -41 13 -95 16 -120 3 -25 8 -56 10 -70 2 -14 7
-44 10 -66 10 -75 16 -119 20 -139 2 -11 8 -54 14 -95 7 -41 27 -167 46 -280
47 -275 44 -262 51 -290 3 -14 7 -36 9 -50 4 -31 13 -77 21 -110 3 -14 7 -36
9 -50 2 -14 13 -69 24 -124 12 -54 23 -108 25 -120 44 -215 164 -720 183 -766
3 -8 8 -26 10 -40 2 -14 8 -36 13 -50 5 -14 23 -77 40 -140 17 -63 34 -122 37
-130 3 -8 7 -22 9 -30 10 -44 204 -618 231 -680 3 -8 7 -17 8 -20 3 -9 16 -44
32 -85 8 -22 19 -49 23 -60 4 -11 13 -33 20 -50 8 -16 14 -34 16 -40 3 -12
107 -260 141 -335 14 -30 41 -91 61 -135 20 -44 77 -159 126 -255 49 -96 97
-192 108 -212 10 -21 22 -38 27 -38 4 0 8 -6 8 -13 0 -16 112 -209 127 -219 6
-4 7 -8 3 -8 -9 0 30 -60 46 -71 5 -3 7 -8 5 -11 -6 -9 142 -228 154 -228 6 0
8 -3 5 -6 -6 -7 60 -106 75 -112 5 -2 8 -10 8 -18 0 -8 4 -14 8 -14 5 0 13 -8
18 -19 5 -10 23 -36 39 -57 176 -222 220 -274 331 -393 34 -36 73 -78 86 -93
14 -15 28 -24 32 -20 4 4 6 2 4 -4 -4 -15 204 -214 217 -207 5 4 7 3 3 -1 -7
-8 20 -36 80 -84 19 -15 49 -40 67 -57 18 -16 45 -39 59 -49 15 -11 39 -30 53
-42 15 -13 30 -21 35 -18 4 3 8 0 8 -5 0 -13 125 -105 134 -100 3 2 13 -6 21
-18 9 -13 23 -23 31 -23 8 0 14 -4 14 -8 0 -5 12 -15 28 -23 15 -8 29 -16 32
-19 9 -10 194 -121 205 -123 5 -1 12 -5 15 -8 14 -18 267 -139 445 -214 117
-50 473 -160 483 -150 3 3 10 1 16 -4 6 -5 27 -12 46 -15 19 -3 47 -8 63 -11
15 -3 37 -7 50 -9 12 -2 33 -7 47 -10 14 -3 42 -8 63 -11 20 -3 52 -7 70 -10
32 -5 69 -9 207 -23 96 -9 530 -9 635 1 107 9 185 17 215 22 14 3 61 9 105 15
44 6 87 13 95 17 8 3 24 7 35 8 11 2 36 6 55 10 19 4 41 7 48 7 6 1 12 4 12 7
0 3 10 6 23 7 12 0 33 3 47 7 21 4 355 90 400 102 334 90 356 95 397 81 27 -9
36 -46 23 -99 -12 -44 -48 -162 -57 -187 -4 -8 -7 -17 -8 -20 -1 -3 -5 -14
-10 -25 -4 -11 -14 -35 -21 -54 -8 -18 -11 -37 -8 -42 3 -5 1 -9 -3 -9 -5 0
-17 -26 -28 -57 -10 -32 -22 -63 -27 -69 -5 -7 -8 -16 -7 -20 1 -5 -7 -31 -19
-57 -12 -27 -20 -53 -17 -57 3 -5 1 -10 -3 -12 -5 -1 -39 -86 -76 -188 -37
-102 -74 -198 -81 -215 -10 -24 -46 -126 -50 -145 -1 -3 -7 -18 -14 -35 -18
-43 -62 -158 -65 -170 -2 -5 -6 -17 -9 -25 -4 -8 -20 -51 -36 -95 -48 -133
-153 -417 -164 -445 -4 -8 -18 -49 -32 -90 -14 -41 -30 -84 -35 -95 -5 -11
-39 -101 -75 -200 -37 -99 -80 -213 -96 -254 -16 -40 -26 -77 -23 -82 3 -5 1
-9 -3 -9 -7 0 -42 -79 -49 -110 0 -3 -6 -18 -13 -35 -6 -16 -16 -41 -21 -55
-5 -14 -15 -38 -21 -55 -7 -16 -13 -34 -14 -40 -2 -5 -23 -62 -48 -125 -130
-333 -160 -414 -160 -426 0 -8 -4 -14 -8 -14 -4 0 -10 -12 -13 -27 -4 -16 -13
-41 -21 -58 -8 -16 -42 -102 -76 -190 -34 -88 -70 -180 -80 -204 -10 -24 -16
-47 -13 -52 3 -5 1 -9 -4 -9 -5 0 -17 -21 -27 -47 -10 -27 -47 -117 -82 -202
-35 -85 -65 -159 -66 -165 -1 -6 -6 -14 -10 -17 -5 -3 -10 -12 -11 -20 -1 -8
-10 -30 -18 -49 -9 -19 -23 -51 -31 -70 -17 -39 -35 -81 -100 -225 -74 -163
-107 -235 -151 -325 -22 -47 -41 -87 -41 -90 -1 -3 -58 -118 -127 -257 -70
-138 -123 -255 -120 -259 4 -4 2 -4 -5 0 -7 4 -14 -3 -18 -15 -4 -12 -20 -44
-36 -71 -16 -26 -25 -48 -21 -48 4 0 3 -4 -3 -8 -5 -4 -20 -25 -32 -47 -11
-22 -34 -65 -51 -95 -29 -55 -107 -191 -185 -325 -23 -38 -40 -73 -39 -77 1
-5 -1 -8 -6 -8 -4 0 -16 -17 -27 -37 -11 -21 -23 -42 -28 -48 -23 -30 -115
-185 -109 -185 3 0 -1 -6 -10 -12 -9 -7 -25 -27 -35 -45 -36 -65 -248 -362
-268 -375 -5 -4 -7 -8 -3 -8 4 0 -9 -16 -28 -36 -18 -20 -31 -41 -28 -45 3 -5
2 -8 -3 -7 -12 4 -73 -66 -73 -82 0 -8 -3 -11 -6 -7 -7 7 -70 -63 -67 -75 2
-4 -1 -7 -6 -5 -11 3 -137 -124 -133 -135 1 -5 -1 -7 -6 -4 -5 3 -15 -3 -24
-12 -8 -9 -35 -33 -59 -52 -24 -19 -55 -45 -69 -57 -40 -36 -44 -39 -101 -76
-76 -50 -162 -77 -227 -71 -122 11 -194 75 -282 253 -33 67 -60 123 -60 126 0
2 -11 28 -24 57 -63 139 -147 422 -172 583 -3 17 -8 37 -11 45 -3 8 -7 24 -8
35 -3 31 -16 108 -20 125 -2 8 -7 35 -10 60 -3 25 -10 72 -15 105 -5 33 -12
87 -15 120 -4 33 -8 67 -10 75 -2 8 -7 47 -10 85 -3 39 -9 93 -12 120 -6 56
-8 77 -17 220 -4 55 -8 132 -11 170 -12 180 -17 432 -16 790 4 1043 3 1543 -3
1575 -12 66 -29 120 -38 120 -5 0 -7 4 -4 9 7 11 -62 91 -80 91 -8 0 -14 4
-14 8 0 12 -70 43 -81 37 -5 -4 -9 -2 -9 3 0 11 -108 36 -275 63 -175 27 -379
61 -460 75 -104 18 -139 23 -146 19 -4 -3 -10 -2 -13 3 -2 4 -19 9 -38 10 -18
2 -50 7 -70 13 -20 5 -40 8 -45 7 -4 -1 -28 2 -53 6 -74 14 -75 14 -330 55
-135 22 -263 43 -285 46 -22 4 -50 8 -63 10 -24 4 -151 24 -192 31 -14 2 -41
7 -60 9 -51 8 -92 14 -120 20 -14 3 -43 7 -65 10 -22 3 -67 10 -100 16 -33 6
-78 13 -100 15 -21 3 -51 7 -65 9 -14 3 -41 8 -60 11 -19 3 -60 9 -90 14 -50
9 -74 13 -167 26 -42 6 -83 12 -158 24 -33 6 -80 12 -105 16 -25 3 -56 7 -70
10 -52 10 -197 12 -249 2 -97 -17 -171 -63 -216 -133 -29 -45 -56 -106 -50
-115 3 -5 1 -10 -4 -12 -6 -1 -12 -15 -15 -30 -2 -15 -7 -32 -10 -37 -3 -4 -8
-28 -10 -52 -3 -24 -7 -55 -10 -68 -7 -31 -17 -115 -31 -256 -2 -22 -6 -58 -9
-80 -4 -38 -12 -113 -21 -215 -4 -44 -15 -189 -20 -280 -26 -414 -26 -1383 0
-1630 2 -19 7 -82 10 -140 3 -58 8 -121 10 -140 2 -19 6 -71 10 -115 3 -44 8
-93 10 -110 2 -16 6 -61 9 -100 4 -38 8 -83 11 -100 2 -16 7 -57 10 -90 4 -33
9 -71 11 -85 3 -14 7 -50 9 -80 3 -30 7 -64 9 -76 2 -12 7 -45 11 -75 3 -30
13 -94 20 -144 8 -49 17 -108 20 -130 4 -22 15 -89 26 -150 11 -60 22 -121 23
-135 2 -14 7 -49 11 -77 4 -29 11 -53 14 -53 3 0 6 -10 7 -22 1 -28 13 -97 40
-223 9 -38 17 -79 20 -90 14 -69 136 -548 145 -571 7 -16 11 -37 10 -46 -1
-10 3 -18 9 -18 6 0 9 -4 6 -8 -4 -7 9 -53 86 -302 11 -36 25 -82 31 -102 6
-21 15 -38 19 -38 4 0 5 -7 2 -15 -4 -8 -1 -15 6 -15 6 0 9 -4 6 -9 -3 -4 6
-39 20 -77 14 -38 35 -94 46 -124 11 -30 24 -64 28 -75 5 -11 28 -71 51 -133
23 -61 47 -112 51 -112 5 0 7 -4 3 -10 -3 -5 -1 -17 4 -27 5 -10 26 -58 47
-107 20 -49 52 -123 71 -165 19 -42 34 -77 34 -78 0 -2 33 -70 74 -153 41 -82
75 -154 75 -160 0 -5 3 -10 8 -10 4 0 15 -20 25 -45 11 -25 24 -45 30 -45 6 0
7 -3 4 -7 -4 -3 1 -18 10 -32 9 -14 27 -44 39 -66 107 -198 354 -584 411 -641
13 -13 23 -26 23 -29 -1 -6 15 -29 60 -85 8 -10 26 -33 40 -51 14 -18 35 -43
47 -55 12 -12 20 -24 17 -27 -3 -3 6 -14 20 -25 15 -11 26 -22 26 -26 0 -17
284 -315 421 -441 116 -108 260 -226 394 -323 55 -39 105 -76 110 -80 31 -24
171 -111 179 -111 5 0 12 -4 15 -9 8 -12 186 -112 200 -112 6 0 11 -4 11 -10
0 -5 4 -10 9 -10 5 0 53 -21 107 -46 55 -25 113 -51 129 -59 102 -47 382 -139
515 -170 40 -9 177 -37 195 -40 11 -2 40 -6 65 -9 25 -3 57 -9 71 -11 14 -3
52 -8 85 -10 32 -3 86 -7 119 -10 209 -20 559 -3 825 41 52 9 100 17 105 18 6
2 31 6 58 11 26 4 50 11 53 16 3 5 9 7 14 4 5 -3 33 1 62 9 29 9 64 17 78 20
62 12 225 61 228 68 2 4 7 6 12 3 9 -6 323 104 425 150 17 7 68 30 115 51 140
61 380 184 380 194 0 5 7 7 15 4 8 -4 15 -1 15 5 0 6 4 11 9 11 13 0 155 82
159 92 2 4 10 8 18 8 8 0 14 5 14 10 0 6 6 10 14 10 8 0 21 6 28 13 7 6 29 21
48 31 19 11 40 27 47 35 7 9 13 13 13 9 0 -4 35 17 78 47 42 30 99 69 125 87
26 18 59 43 72 56 14 13 25 20 25 16 0 -4 9 2 20 14 12 12 24 22 28 22 4 0 27
19 52 41 25 23 45 40 45 38 0 -4 138 106 165 131 20 18 64 56 110 94 111 90
406 375 402 388 -1 5 1 7 6 4 12 -7 84 68 75 78 -5 4 -3 6 3 4 6 -1 40 27 75
63 133 138 184 194 181 201 -1 5 5 8 13 8 8 0 15 3 15 8 0 4 23 32 51 62 28
30 63 70 77 89 15 19 38 46 52 60 49 50 115 134 112 143 -1 4 5 8 13 8 8 0 15
7 15 15 0 8 3 15 8 15 6 0 66 73 147 178 5 7 18 21 28 30 9 9 17 20 17 24 0 4
11 19 25 34 13 14 22 32 18 38 -3 6 -3 8 2 4 9 -8 42 31 37 45 -1 4 2 7 6 7 8
0 67 77 162 210 22 30 43 60 47 65 32 40 51 73 45 80 -4 5 -2 5 4 2 11 -6 29
19 26 36 -1 4 2 7 6 7 7 0 59 72 107 149 6 9 36 55 68 103 32 48 57 90 57 94
-1 4 2 10 7 13 13 8 104 151 97 151 -3 0 2 7 10 16 9 8 28 36 43 62 14 26 39
67 54 91 16 24 26 49 22 55 -3 6 -2 8 2 3 8 -7 82 111 77 126 -1 4 2 7 7 7 10
0 46 70 43 83 -1 4 2 7 7 7 6 0 24 28 41 63 18 34 41 74 52 90 11 15 16 27 11
27 -4 0 -3 4 3 8 5 4 23 32 39 62 16 30 50 96 77 145 26 50 83 160 126 245 42
85 80 157 85 158 4 2 7 8 7 13 0 5 40 91 90 191 49 100 87 185 84 190 -3 4 -1
8 4 8 9 0 82 150 82 170 0 5 5 10 10 10 6 0 10 6 10 14 0 7 10 33 23 57 12 24
43 89 67 144 25 55 50 111 57 124 6 14 10 28 7 33 -3 4 -1 8 4 8 5 0 22 30 37
68 16 37 32 72 37 79 6 7 7 17 3 23 -3 5 -2 10 4 10 5 0 13 10 17 23 4 12 20
51 36 87 16 36 33 74 38 85 4 11 15 36 24 57 9 20 16 41 16 47 0 6 5 11 10 11
6 0 10 6 10 14 0 13 15 50 66 164 14 29 22 58 19 63 -4 5 -2 9 3 9 4 0 19 26
32 58 49 123 93 229 111 270 11 24 17 47 14 52 -4 6 -2 10 3 10 7 0 47 91 57
130 1 3 11 27 23 53 12 27 20 53 17 57 -3 5 -1 10 4 12 10 4 133 315 134 341
1 9 4 17 7 17 3 0 14 26 25 58 10 31 22 62 25 67 4 6 14 30 22 55 15 42 97
263 138 375 44 119 122 339 124 349 1 6 4 16 7 21 4 6 12 28 18 50 7 22 16 49
21 60 5 11 16 40 24 65 8 25 24 69 35 98 12 30 19 58 16 63 -4 5 -2 9 2 9 8 0
57 132 58 155 0 6 4 13 8 16 5 4 10 18 10 33 1 14 5 26 8 26 4 0 36 88 45 125
1 6 14 41 28 79 14 38 23 73 20 78 -3 4 -1 8 5 8 8 0 44 98 46 125 0 6 2 12 5
15 6 5 239 694 244 721 2 8 6 21 9 29 20 46 36 103 32 110 -3 5 -2 10 3 12 4
1 40 109 81 238 40 129 82 263 93 298 11 34 21 68 22 75 2 13 35 119 67 221
10 33 17 62 14 64 -3 3 -1 10 4 16 8 10 70 221 76 256 1 8 5 22 8 30 24 68 47
162 42 170 -3 5 -2 10 3 10 7 0 27 72 46 163 2 7 6 19 9 27 7 17 37 133 44
169 2 14 13 57 24 97 11 40 22 85 24 101 2 15 13 64 24 108 41 164 61 257 56
265 -3 5 -1 11 4 14 5 3 12 20 15 38 11 60 16 83 26 133 6 28 12 61 15 75 3
14 7 36 10 50 10 48 15 75 21 110 3 19 9 51 14 70 5 19 11 57 14 83 3 27 8 52
10 56 3 4 8 30 12 57 3 27 8 51 9 54 2 3 6 26 10 50 3 25 11 64 16 88 5 23 12
59 14 80 3 20 10 57 15 82 5 25 25 140 45 255 19 116 37 221 40 235 2 13 7 42
10 65 3 22 10 63 15 90 16 82 20 107 30 180 6 39 12 77 15 85 2 8 7 35 10 60
3 25 8 56 10 70 3 14 7 41 10 60 3 19 8 42 10 50 2 8 7 35 10 60 3 25 7 56 10
70 5 29 12 69 20 125 4 22 22 137 41 255 19 118 37 231 39 250 2 19 9 60 14
90 6 30 13 73 16 95 3 22 10 67 15 100 12 70 14 86 35 220 8 55 17 111 20 125
7 34 17 100 20 130 1 14 5 36 8 50 4 14 8 44 11 67 3 22 7 52 10 65 3 12 8 41
11 62 3 21 7 48 10 60 2 12 7 38 10 59 8 58 16 110 21 137 4 24 70 425 80 485
3 17 11 66 19 110 8 44 17 98 20 120 3 22 10 67 16 100 15 82 20 115 24 150 1
17 5 41 9 55 8 33 15 74 21 130 3 25 10 65 15 90 6 25 11 66 13 91 2 25 6 50
9 55 3 5 9 34 12 64 4 30 8 66 11 80 2 14 6 45 9 70 2 25 7 52 10 60 2 8 7 40
11 70 3 30 10 82 15 115 5 33 12 85 15 115 3 30 8 66 10 80 8 53 15 107 20
160 3 30 7 71 10 90 2 19 7 60 10 90 3 30 8 71 10 90 3 19 7 64 10 100 3 36 7
85 10 110 2 25 7 79 10 120 4 41 8 91 10 110 2 19 6 76 10 125 4 50 8 106 10
125 2 19 6 78 10 130 7 108 12 180 20 295 6 86 12 178 20 320 2 50 7 126 10
170 2 44 7 125 10 180 7 143 16 309 20 390 2 39 6 126 9 195 12 242 26 521 31
650 2 58 7 152 10 210 2 58 7 159 10 225 3 66 8 167 11 225 3 58 7 150 9 205
3 55 7 132 9 170 3 39 8 131 11 205 3 74 7 162 10 195 3 33 7 128 11 210 3 83
7 182 9 220 24 508 25 1408 0 1780 -1 22 -5 92 -10 155 -7 114 -13 185 -15
185 0 0 -3 29 -5 65 -2 36 -7 90 -10 120 -4 30 -8 69 -10 87 -5 57 -27 137
-54 193 -31 64 -116 155 -165 175 -19 8 -38 19 -41 25 -4 6 -10 8 -15 5 -5 -3
-11 -1 -15 4 -7 13 -196 74 -203 66 -3 -2 -11 0 -19 6 -7 6 -13 9 -13 6 0 -3
-26 1 -57 8 -32 7 -78 16 -103 20 -113 16 -145 21 -190 30 -21 4 -217 34 -325
51 -16 2 -41 6 -55 9 -32 5 -95 15 -140 21 -19 2 -59 9 -88 15 -30 6 -73 13
-95 16 -69 7 -89 10 -152 22 -63 11 -121 20 -170 26 -16 2 -57 8 -90 14 -33 5
-78 12 -99 16 -21 3 -48 7 -60 10 -12 2 -43 7 -71 10 -27 3 -59 8 -70 10 -11
3 -40 7 -66 9 -25 3 -52 7 -60 10 -7 3 -36 7 -64 10 -27 3 -61 8 -75 10 -14 3
-47 8 -75 11 -27 4 -61 9 -75 11 -14 2 -45 6 -70 8 -25 3 -45 6 -45 7 0 1 -13
3 -30 5 -16 2 -61 8 -100 14 -38 6 -90 13 -115 16 -25 3 -56 7 -70 9 -14 2
-51 7 -83 10 -32 4 -66 8 -75 10 -9 1 -46 6 -82 9 -36 4 -76 9 -90 11 -14 3
-56 7 -95 11 -38 3 -99 9 -135 14 -81 11 -290 7 -310 -5 -8 -5 -25 -10 -38
-11 -33 -4 -141 -60 -178 -93 -16 -15 -42 -43 -56 -62 -37 -49 -129 -225 -121
-233 3 -3 1 -6 -6 -6 -8 0 -11 -7 -7 -15 3 -8 1 -15 -4 -15 -5 0 -12 -10 -16
-22 -3 -13 -15 -42 -26 -66 -10 -23 -16 -47 -13 -52 3 -6 2 -10 -3 -10 -5 0
-12 -8 -15 -17 -2 -10 -17 -58 -31 -107 -14 -49 -29 -103 -31 -120 -3 -17 -8
-38 -10 -46 -2 -8 -7 -35 -10 -60 -3 -25 -8 -52 -10 -60 -2 -8 -6 -40 -10 -71
-3 -31 -7 -65 -9 -75 -2 -11 -7 -46 -10 -79 -4 -33 -8 -71 -11 -85 -2 -14 -7
-56 -10 -95 -3 -38 -8 -88 -10 -110 -6 -45 -10 -83 -25 -240 -6 -60 -13 -132
-16 -160 -3 -27 -7 -75 -9 -105 -3 -30 -7 -71 -10 -90 -3 -19 -7 -64 -10 -100
-3 -36 -7 -76 -10 -90 -2 -14 -7 -56 -10 -95 -3 -38 -7 -77 -10 -85 -2 -8 -6
-44 -10 -80 -3 -36 -8 -78 -11 -94 -2 -15 -7 -49 -9 -75 -2 -25 -5 -46 -5 -46
-2 0 -8 -36 -15 -85 -3 -25 -8 -56 -10 -70 -2 -14 -11 -70 -20 -125 -9 -55
-18 -111 -20 -125 -2 -14 -7 -43 -10 -65 -4 -22 -9 -49 -12 -59 -3 -11 -7 -34
-9 -51 -2 -30 -18 -114 -51 -275 -8 -41 -17 -88 -20 -105 -9 -58 -93 -457 -97
-464 -2 -3 -7 -24 -10 -46 -4 -22 -11 -58 -17 -80 -6 -22 -13 -51 -16 -65 -2
-14 -13 -63 -24 -110 -11 -47 -22 -94 -25 -105 -2 -11 -7 -33 -10 -50 -4 -16
-8 -37 -9 -45 -1 -8 -5 -22 -8 -30 -9 -24 -30 -113 -33 -140 -2 -14 -13 -61
-25 -105 -11 -44 -22 -87 -24 -95 -4 -17 -122 -501 -132 -540 -3 -14 -7 -30
-8 -36 -2 -5 -13 -48 -25 -95 -12 -46 -23 -93 -25 -104 -1 -11 -5 -27 -8 -35
-4 -8 -16 -58 -29 -110 -12 -52 -23 -97 -23 -100 -1 -3 -5 -18 -9 -35 -4 -16
-14 -57 -22 -90 -8 -33 -17 -71 -20 -85 -3 -14 -9 -38 -14 -55 -15 -50 -51
-193 -55 -222 -2 -16 -13 -56 -24 -90 -10 -35 -17 -63 -15 -63 3 0 0 -8 -5
-17 -5 -10 -11 -31 -14 -48 -3 -16 -17 -70 -31 -120 -14 -49 -25 -90 -25 -90
0 0 -2 -7 -4 -15 -10 -31 -98 -346 -102 -360 -4 -19 -68 -228 -102 -333 -14
-43 -26 -83 -27 -90 -2 -7 -6 -19 -9 -27 -15 -36 -70 -206 -70 -217 0 -7 -4
-13 -7 -13 -7 0 -22 -48 -24 -75 -1 -5 -4 -12 -7 -15 -3 -3 -14 -30 -24 -60
-9 -30 -23 -68 -30 -85 -7 -16 -39 -97 -71 -180 -79 -206 -178 -440 -245 -579
-16 -32 -26 -62 -24 -66 3 -5 1 -10 -4 -12 -10 -3 -162 -312 -160 -324 0 -4
-3 -10 -8 -13 -5 -3 -25 -37 -43 -76 -18 -38 -44 -87 -57 -107 -13 -21 -23
-44 -23 -52 0 -8 -3 -16 -7 -18 -5 -1 -21 -30 -38 -63 -16 -33 -32 -62 -35
-65 -3 -3 -19 -32 -36 -65 -45 -86 -84 -157 -197 -355 -55 -96 -112 -195 -126
-220 -14 -25 -31 -52 -38 -60 -52 -65 -69 -82 -110 -109 -110 -73 -252 -73
-378 -1 -94 54 -167 138 -265 305 -13 22 -29 43 -34 47 -6 4 -8 8 -4 8 4 0 -6
26 -21 58 -16 31 -35 76 -42 100 -6 23 -16 42 -21 42 -5 0 -6 5 -3 10 3 6 3
16 -2 23 -4 6 -8 17 -9 22 -1 6 -9 37 -17 70 -24 91 -41 202 -52 340 -9 98
-18 181 -31 265 -21 145 -25 164 -30 180 -3 8 -8 31 -10 50 -2 19 -11 69 -19
110 -8 41 -17 91 -19 110 -3 19 -5 35 -6 35 -1 0 -3 17 -5 38 -2 21 -5 48 -8
60 -3 12 -11 60 -17 107 -5 47 -12 96 -14 110 -3 14 -7 52 -10 85 -4 33 -8 76
-11 95 -2 19 -7 62 -10 95 -3 33 -7 76 -9 95 -2 19 -7 78 -10 130 -4 52 -8
120 -11 150 -17 216 -25 352 -40 755 -3 72 -7 191 -10 265 -3 74 -8 205 -10
290 -9 322 -20 591 -32 775 -3 61 -7 245 -7 410 0 296 5 437 28 810 7 101 12
209 21 435 7 188 17 408 30 660 3 52 7 122 10 155 3 33 7 94 10 135 2 41 7 91
10 110 2 19 7 62 10 95 3 33 7 76 9 95 3 19 7 58 10 85 4 28 8 63 10 78 3 15
7 60 11 100 4 40 9 80 10 89 5 22 17 124 20 163 4 51 16 158 21 190 3 17 7 55
9 85 2 30 5 55 6 55 1 0 3 14 4 30 1 17 5 48 8 70 8 49 15 105 21 165 7 61 42
324 52 385 3 17 7 46 9 65 3 32 55 345 70 430 4 19 9 49 11 65 2 17 18 93 34
170 17 77 32 149 34 160 2 11 23 99 47 195 37 150 43 190 43 280 0 90 -4 117
-28 187 -16 45 -40 93 -53 107 -13 14 -23 28 -22 31 2 14 -64 84 -74 78 -5 -3
-7 -1 -4 4 9 14 -160 129 -193 131 -3 0 -17 5 -31 11 -24 9 -100 25 -174 37
-16 3 -41 7 -55 10 -14 2 -43 7 -65 10 -22 3 -60 9 -85 14 -25 5 -63 11 -85
14 -22 3 -51 8 -65 10 -14 2 -45 7 -70 11 -25 4 -54 8 -65 10 -11 2 -121 20
-245 39 -124 20 -251 40 -284 46 -32 5 -61 9 -65 8 -3 0 -8 1 -11 2 -11 4 -47
10 -90 15 -25 2 -65 9 -90 14 -25 5 -67 12 -95 16 -27 3 -102 15 -165 25 -148
24 -170 28 -255 40 -38 6 -95 15 -125 20 -90 15 -134 22 -155 24 -25 3 -113
17 -140 22 -11 3 -36 7 -55 10 -19 3 -62 10 -95 15 -33 6 -71 12 -85 14 -14 2
-95 16 -180 30 -206 35 -283 42 -355 33z"/>
<path d="M21139 27933 c-13 -16 -12 -17 4 -4 16 13 21 21 13 21 -2 0 -10 -8
-17 -17z"/>
<path d="M20179 8773 c-13 -16 -12 -17 4 -4 9 7 17 15 17 17 0 8 -8 3 -21 -13z"/>
</g>
</svg>
