<?xml version="1.0" encoding="UTF-8" standalone="no"?>
<!DOCTYPE svg PUBLIC "-//W3C//DTD SVG 1.1//EN" "http://www.w3.org/Graphics/SVG/1.1/DTD/svg11.dtd">
<svg width="100%" height="100%" viewBox="0 0 3308 1334" version="1.1" xmlns="http://www.w3.org/2000/svg" xmlns:xlink="http://www.w3.org/1999/xlink" xml:space="preserve" xmlns:serif="http://www.serif.com/" style="fill-rule:evenodd;clip-rule:evenodd;stroke-linejoin:round;stroke-miterlimit:2;">
    <g transform="matrix(1,0,0,1,-2346.15,-1583.33)">
        <g id="Page-1" serif:id="Page 1" transform="matrix(4.16667,0,0,4.16667,0,0)">
            <rect x="0" y="0" width="1920" height="1080" style="fill:none;"/>
            <g id="Layer-1" serif:id="Layer 1">
                <g transform="matrix(1,0,0,1,987.51,535.269)">
                    <path d="M0,-154.387C12.286,-155.383 34.188,-155.671 46.33,-154.54C52.341,-153.98 55.406,-151.713 55.933,-145.542C56.326,-140.946 56.49,-123.706 55.086,-120.09C51.711,-111.393 37.004,-111.013 33.773,-101.466C32.336,-97.22 32.485,-81.576 32.917,-76.571C34.274,-60.839 52.264,-64.02 55.751,-51.263C57.414,-45.182 57.1,-19.238 56.48,-12.016C56.078,-7.332 53.538,-3.003 48.949,-1.493C46.639,-0.733 42.333,-0.389 39.797,-0.251C31.846,0.185 2.966,0.88 -3.166,-1.099C-8.172,-2.715 -10.37,-7.07 -10.821,-12.044C-11.593,-20.56 -11.797,-40.853 -10.688,-49.095C-8.965,-61.902 6.354,-60.786 10.781,-70.845C12.803,-75.441 12.647,-92.896 12.167,-98.493C11.643,-104.599 7.136,-109.261 2.936,-102.761C-1.897,-95.282 -2.214,-78.739 -8.371,-73.037C-14.454,-67.404 -28.927,-67.686 -34.045,-74.711C-38.599,-80.96 -40.761,-100.803 -45.807,-104.526C-49.303,-107.106 -52.399,-104.38 -52.907,-100.614C-53.596,-95.506 -53.549,-79.643 -52.812,-74.545C-50.646,-59.558 -30.727,-64.095 -29.407,-46.525C-28.692,-37.001 -28.565,-19.8 -29.408,-10.372C-30.103,-2.607 -35.913,-0.265 -42.841,0.267C-54.454,1.16 -75.085,1.284 -86.619,0.293C-92.652,-0.225 -96.101,-3.185 -96.715,-9.306C-97.462,-16.767 -96.621,-26.204 -96.698,-33.941C-96.766,-40.645 -98.558,-46.719 -95.374,-53.36C-90.954,-62.578 -75.126,-61.317 -73.75,-74.956C-73.215,-80.264 -73.179,-96.532 -74.951,-101.096C-78.538,-110.34 -93.141,-110.51 -96.438,-118.998C-98.412,-124.078 -98.289,-138.147 -97.835,-143.901C-97.202,-151.931 -93.586,-153.499 -86.076,-154.024C-73.538,-154.902 -51.94,-155.086 -39.532,-154.021C-33.648,-153.516 -30.821,-151.086 -29.569,-145.383C-26.765,-132.613 -28.04,-116.155 -24.813,-103.638C-23.134,-97.128 -18.1,-97.014 -16.452,-103.549C-13.478,-115.349 -14.367,-130.918 -12.404,-143.267C-10.998,-152.111 -8.67,-153.684 0,-154.387" style="fill-rule:nonzero;"/>
                </g>
                <g transform="matrix(1,0,0,1,1077.77,543.208)">
                    <path d="M0,-160.691L113.088,-156.463C118.839,-155.813 121.108,-153.148 121.594,-147.462C122.139,-141.088 120.795,-131.644 120.458,-125.035C120.19,-119.79 121.303,-108.606 117.998,-104.518C116.519,-102.69 113.215,-101.908 110.928,-101.745C105.435,-101.352 91.922,-102.084 86.429,-102.997C78.263,-104.354 73.121,-111.116 65.763,-114.062C59.791,-116.452 44.949,-118.503 39.127,-116.099C33.008,-113.572 31.592,-102.282 38.95,-100.378C40.59,-99.954 44.943,-99.688 46.904,-99.579C53.099,-99.235 59.729,-99.93 65.916,-98.896C73.66,-97.602 74.109,-85.603 66.986,-83.316C60.7,-81.298 48.006,-84.229 40.859,-83.726C28.059,-82.825 33.688,-69.997 42.097,-66.324C47.381,-64.017 60.87,-63.121 66.316,-64.838C74.952,-67.562 78.955,-80.318 87.43,-81.472C93.73,-82.331 107.028,-81.678 113.581,-80.912C119.92,-80.172 121.713,-75.57 121.608,-69.739C121.296,-52.485 120.511,-33.448 119.381,-16.15C119.179,-13.056 118.819,-8.378 117.109,-5.839C113.179,0 101.606,-2.581 95.611,-2.764C73.869,-3.426 52.217,-4.533 30.509,-5.499C19.976,-5.968 8.637,-5.488 -1.782,-6.58C-7.586,-7.189 -12.969,-10.437 -13.581,-16.664C-14.283,-23.811 -13.247,-31.457 -12.984,-38.552C-12.734,-45.303 -13.934,-54.264 -10.721,-60.361C-6.23,-68.884 7.653,-67.88 11.095,-78.481C12.416,-82.55 13.065,-97.941 12.726,-102.602C11.554,-118.727 -8.04,-116.07 -9.663,-129.45C-10.193,-133.815 -9.576,-151.494 -8.253,-155.273C-6.863,-159.245 -3.8,-160.122 0,-160.691" style="fill-rule:nonzero;"/>
                </g>
                <g transform="matrix(1,0,0,1,791.657,498.523)">
                    <path d="M0,-71.139C-7.468,-70.654 -24.725,-67.143 -26.567,-58.321C-28.228,-50.37 -20.022,-52.606 -15.503,-52.723C-3.179,-53.04 11.227,-52.953 23.364,-54.34C29.169,-55.003 30.844,-59.009 27.151,-63.601C21.772,-70.289 7.977,-71.657 0,-71.139M-2.81,39.569C-5.179,41.926 -10.58,42.245 -13.844,42.486C-27.746,43.513 -44.961,44.735 -58.697,44.722C-65.422,44.716 -68.149,41.452 -68.811,35.096C-69.723,26.345 -69.583,16.599 -69.892,7.729C-70.066,2.726 -71.294,-2.829 -70.218,-7.87C-68.227,-17.201 -49.814,-18.659 -48.565,-28.889C-47.925,-34.132 -48.676,-52.592 -49.911,-57.659C-51.475,-64.07 -56.996,-66.36 -59.976,-71.118C-62.972,-75.901 -63.241,-88.083 -63.372,-93.982C-63.566,-102.662 -65.029,-109.663 -54.313,-110.681C-34.142,-112.599 -11.761,-112.793 8.614,-113.403C23.271,-113.842 36.11,-115.874 45.316,-101.461C54.489,-87.1 49.819,-53.983 52.771,-36.155C55.319,-20.771 75.566,-27.275 77.788,-9.746C78.959,-0.505 79.271,12.521 79.46,21.953C79.626,30.207 79.858,36.861 69.858,38.109C57.979,39.592 42.037,40.006 29.95,40.325C19.46,40.602 12.136,42.413 11.061,29.626C10.258,20.065 10.334,9.725 9.981,0.07C9.803,-4.812 8.233,-9.471 10.938,-14.247C14.73,-20.943 29.69,-23.706 31.18,-31.222C32.002,-35.368 28.953,-37.948 25.027,-37.951C10.201,-36.421 -5.711,-37.428 -20.406,-35.743C-23.751,-35.359 -27.172,-33.433 -26.59,-29.591C-25.328,-21.259 -8.909,-20.114 -4.353,-12.949C-2.708,-10.362 -2.283,-6.279 -2.054,-3.213C-1.314,6.691 -1.227,17.456 -0.977,27.441C-0.881,31.274 0.533,36.244 -2.81,39.569" style="fill-rule:nonzero;"/>
                </g>
                <g transform="matrix(1,0,0,1,1275.25,551.73)">
                    <path d="M0,-156.644C1.77,-156.887 3.545,-156.814 5.325,-156.779C25.268,-153.977 45.543,-153.33 65.502,-150.762C73.782,-149.697 81.455,-149.436 81.664,-138.974C81.79,-132.673 80.028,-117.634 78.665,-111.35C76.765,-102.588 71.913,-102.274 63.844,-102.602C45.129,-103.362 27.371,-111.013 9.007,-113.962C2.47,-115.012 -14.782,-117.316 -20.556,-115.926C-25.771,-114.671 -29.435,-108.443 -24.09,-104.936C5.809,-100.21 36.34,-98.55 66.452,-94.816C75.607,-92.999 76.01,-88.31 75.651,-79.898C75.302,-71.717 73.922,-61.386 72.888,-53.119C71.722,-43.792 72.199,-38.785 64.946,-32.066C59.073,-26.627 30.636,-3.001 24.902,-0.99C23.156,-0.377 21.328,-0.125 19.521,0.243L-50.227,-7.132C-56.861,-8.544 -59.356,-11.256 -60.044,-18.116C-57.783,-34.126 -58.038,-51.958 -54.947,-67.709C-54.24,-71.314 -53.335,-74.98 -49.498,-76.484C-43.625,-78.785 -25.829,-76.128 -19.738,-73.728C-8.609,-69.342 -1.117,-62.936 11.414,-61.114C18.734,-60.049 35.802,-57.723 42.527,-58.319C52.493,-59.201 56.991,-72.305 46.657,-75.568C18.223,-80.038 -11.678,-80.335 -40.008,-84.641C-43.931,-85.237 -48.611,-85.983 -50.506,-90.008C-52.547,-94.342 -51.353,-103.927 -50.679,-108.849C-50.023,-113.643 -49.233,-118.452 -46.066,-122.289L-6.384,-154.275C-4.563,-155.401 -2.108,-156.355 0,-156.644" style="fill-rule:nonzero;"/>
                </g>
                <g transform="matrix(1,0,0,1,639.847,470.216)">
                    <path d="M0,6.074C-0.685,5.465 -1.903,2.865 -2.112,1.899C-3.92,-6.437 1.086,-7.803 7.84,-9.001C18.483,-10.889 35.369,-13.028 46.065,-13.445C54.509,-13.773 55.841,-10.955 57.202,-3.256C60.058,12.908 61.539,32.113 63.282,48.654C63.848,54.025 66.125,66.743 63.768,70.999C61.887,74.396 57.59,75.378 54.12,76.121C32.184,77.567 9.316,82.718 -12.481,83.923C-21.35,84.413 -23.298,83.681 -30.199,78.674C-42.259,69.925 -53.651,59.317 -65.624,50.364C-69.261,46.478 -69.86,42.707 -70.67,37.63C-73.462,20.117 -74.005,1.656 -76.768,-15.934C-76.859,-22.022 -74.576,-25.008 -71.264,-29.568C-63.914,-39.683 -53.359,-53.213 -45.012,-62.4C-39.095,-68.913 -36.224,-69.034 -27.724,-70.278C-8.639,-73.071 15.53,-76.396 34.578,-77.454C40.38,-77.777 45.903,-78.339 48.408,-72.147C50.785,-66.272 53.298,-42.162 53.473,-35.087C53.673,-27.015 50.439,-24.932 43.152,-23.473C39.234,-22.688 33.599,-21.879 29.644,-21.663C12.629,-20.732 -1.61,-31.565 -20.522,-28.61C-51.655,-23.746 -70.424,10.008 -31.348,20.738C-17.903,24.43 4.151,21.954 18.012,19.225C22.544,18.332 35.457,13.885 33.644,7.732C32.802,4.872 26.66,5.545 24.184,5.702C18.416,6.068 4.246,9.852 0,6.074" style="fill-rule:nonzero;"/>
                </g>
                <g transform="matrix(1,0,0,1,921.86,652.234)">
                    <path d="M0,-59.087C-4.634,-58.616 -15.817,-55.72 -14.975,-49.376C-14.419,-45.194 -11.09,-43.687 -7.291,-43.363C-1.076,-42.834 11.187,-42.774 17.34,-43.389C24.083,-44.062 27.837,-50.992 22.269,-55.417C17.217,-59.431 6.188,-59.716 0,-59.087M-37.201,-94.099C-17.781,-93.227 3.61,-95.826 22.808,-94.252C55.807,-91.546 45.918,-55.744 47.689,-33.242C48.966,-17.025 62.586,-17.548 66.735,-5.786C68.462,-0.892 68.658,18.623 67.903,24.134C66.975,30.896 60.916,34.805 54.538,35.388C48.451,35.944 26.188,36.27 21.002,35.023C15.202,33.627 11.081,27.738 10.513,21.988C9.521,11.955 9.241,-4.853 16.53,-12.468C20.011,-16.105 26.403,-17.453 25.8,-23.894C24.916,-33.348 11.708,-30.296 5.284,-30.826C-1.022,-28.967 -14.696,-33.576 -15.64,-23.831C-16.163,-18.43 -9.374,-16.025 -6.192,-13.28C-3.877,-11.283 -1.772,-7.947 -0.714,-5.081C0.97,-0.519 1.65,16.157 1.199,21.438C0.551,29.031 -3.819,35.019 -11.718,35.875C-19.68,36.739 -32.303,36.513 -40.635,36.534C-46.773,36.549 -53.817,35.37 -55.864,28.733C-57.43,23.655 -57.436,-0.504 -55.972,-5.644C-53.18,-15.447 -42.939,-15.088 -38.886,-23.571C-35.695,-30.249 -36.408,-46.845 -39.728,-53.598C-41.758,-57.725 -45.1,-60.556 -46.472,-65.455C-47.847,-70.363 -48.389,-85.002 -46.148,-89.37C-44.239,-93.093 -41.002,-93.582 -37.201,-94.099" style="fill-rule:nonzero;"/>
                </g>
                <g transform="matrix(1,0,0,1,1149.97,696.792)">
                    <path d="M0,-133.753C4.265,-134.338 7.886,-133.463 11.872,-133.325C21.697,-132.985 32.247,-133.073 41.977,-132.247C46.891,-131.829 51.844,-130.673 53.865,-125.534C55.691,-120.889 54.308,-109.75 52.008,-105.27C46.356,-94.264 32.592,-96.884 28.835,-80.847C23.732,-59.068 39.424,-44.874 59.775,-55.377C64.504,-57.818 68.364,-61.719 73.447,-63.589C81.28,-66.47 98.729,-67.214 104.301,-59.99C111.013,-51.288 104.146,-30.094 105.167,-19.286C103.337,-1.13 98.228,0.585 80.803,0.162C55.797,-0.445 28.102,-1.821 3.146,-3.696C-6.237,-4.401 -16.868,-5.257 -17.945,-17.07C-18.457,-22.692 -17.262,-38.41 -15.447,-43.614C-11.6,-54.637 -1.712,-54.57 4.188,-62.275C9.897,-69.732 11.092,-82.043 6.591,-90.296C2.846,-97.161 -4.384,-98.842 -8.18,-105.067C-13.382,-113.596 -12.494,-132.039 0,-133.753" style="fill-rule:nonzero;"/>
                </g>
                <g transform="matrix(1,0,0,1,792.13,699.197)">
                    <path d="M0,-134.473C1.005,-133.498 1.871,-131.244 2.222,-129.857C3.364,-125.336 4.631,-111.012 3.883,-106.615C3.353,-103.496 0.536,-100.555 -1.823,-98.645C-13.83,-88.928 -31.755,-81.775 -43.535,-71.972C-47.02,-69.072 -49.374,-66.157 -46.973,-61.514C-43.31,-54.432 -29.247,-55.765 -26.2,-46.727C-24.298,-41.085 -23.098,-23.909 -22.798,-17.305C-22.422,-9.026 -22.135,-4.549 -31.338,-2.879C-41.28,-1.075 -56.522,-0.089 -66.837,0.464C-74.709,0.887 -80.876,2.346 -82.828,-7.058C-84.343,-14.353 -85.348,-27.705 -85.701,-35.369C-85.793,-37.376 -85.964,-40.562 -85.671,-42.441C-84.227,-51.7 -64.97,-53.019 -67.912,-64.104C-68.523,-66.403 -70.777,-68.015 -72.754,-69.105C-85.078,-75.902 -102.417,-80.342 -115.618,-86.419C-125.754,-91.085 -126.915,-92.494 -128.374,-103.753C-128.88,-107.662 -129.794,-115.41 -129.492,-119.091C-128.902,-126.278 -123.624,-126.304 -117.707,-126.996C-105.973,-128.369 -91.124,-129.934 -79.439,-130.302C-73.192,-130.499 -70.134,-129.207 -68.886,-122.757C-67.006,-113.037 -68.2,-99.652 -65.556,-90.527C-63.831,-84.574 -56.487,-84.788 -55.648,-90.103C-54.168,-99.471 -58.382,-114.049 -58.401,-123.988C-58.414,-131.13 -54.241,-132.208 -48.226,-133.012C-36.9,-134.523 -21.872,-135.867 -10.477,-136.294C-7.303,-136.413 -2.416,-136.819 0,-134.473" style="fill-rule:nonzero;"/>
                </g>
                <g transform="matrix(1,0,0,1,1020.3,689.502)">
                    <path d="M0,-132.493C5.442,-133.404 11.443,-132.249 16.835,-132.082C23.356,-131.879 37.177,-132.761 42.233,-129.031C43.639,-127.993 45.396,-125.674 45.983,-124.028C48.321,-117.47 46.784,-106.543 42.495,-100.94C39.346,-96.827 34.416,-95.145 31.092,-91.553C22.008,-81.736 21.848,-57 36.898,-52.576C51.727,-48.217 59.017,-64.011 72.636,-65.328C82.796,-66.311 92.992,-64.29 94.26,-52.496C93.68,-40.309 94.139,-27.382 93.138,-15.283C92.34,-5.626 87.275,-0.344 77.553,0.007C52.531,0.911 25.653,-3.486 0.426,-2.975C-7.23,-3.649 -12.878,-8.543 -13.553,-16.35C-14.036,-21.946 -13.359,-37.931 -11.741,-43.025C-8.506,-53.204 0.729,-54.456 5.516,-62.422C10.651,-70.968 10.188,-85.441 3.706,-93.24C0.577,-97.005 -3.899,-98.749 -6.647,-103.129C-11.6,-111.025 -11.851,-130.51 0,-132.493" style="fill-rule:nonzero;"/>
                </g>
                <g transform="matrix(1,0,0,1,841.438,622.402)">
                    <path d="M0,-57.153C6.66,-57.294 11.088,-56.752 12.642,-49.329C15.072,-37.728 13.245,-22.056 14.879,-10.001C14.354,-2.945 8.856,0.141 2.156,-1.094C-6.174,-2.629 -2.959,-13.639 -10.12,-16.719C-18.11,-20.155 -23.051,-15.436 -24.433,-28.118C-24.995,-33.267 -25.67,-41.571 -25.616,-46.62C-25.579,-50.098 -24.467,-53.238 -21.255,-54.888C-17.744,-56.691 -4.594,-57.056 0,-57.153" style="fill-rule:nonzero;"/>
                </g>
            </g>
        </g>
    </g>
</svg>
